<?xml version="1.0" standalone="no"?>
<!DOCTYPE svg PUBLIC "-//W3C//DTD SVG 20010904//EN"
 "http://www.w3.org/TR/2001/REC-SVG-20010904/DTD/svg10.dtd">
<svg version="1.0" xmlns="http://www.w3.org/2000/svg"
 width="1536.000000pt" height="1024.000000pt" viewBox="0 0 1536.000000 1024.000000"
 preserveAspectRatio="xMidYMid meet">
<metadata>
Created by potrace 1.16, written by Peter Selinger 2001-2019
</metadata>
<g transform="translate(0.000000,1024.000000) scale(0.100000,-0.100000)"
fill="#000000" stroke="none">
<path d="M0 5120 l0 -5120 7680 0 7680 0 0 5120 0 5120 -7680 0 -7680 0 0
-5120z m7900 3023 c0 -7 -39 17 -46 28 -3 6 5 3 20 -6 14 -10 26 -19 26 -22z
m-393 21 c-10 -10 13 -45 24 -38 7 4 7 -1 0 -15 -13 -23 1 -35 30 -29 8 2 13
-1 12 -7 0 -5 5 -16 13 -23 16 -15 18 -8 4 18 -8 15 -6 20 10 25 11 3 20 12
20 18 0 7 14 12 30 13 17 1 30 -3 30 -8 0 -5 -5 -6 -12 -2 -6 4 -8 3 -5 -4 6
-8 23 -9 45 -3 1 1 4 0 5 -1 2 -2 12 4 22 12 11 8 16 10 13 5 -4 -6 3 -22 14
-35 11 -14 18 -18 15 -9 -4 13 -1 15 14 12 10 -3 16 -9 13 -14 -3 -5 0 -9 5
-9 6 0 11 5 11 11 0 5 5 7 11 3 7 -4 10 3 9 17 -3 37 -2 39 23 30 28 -10 47
-4 48 17 1 10 4 6 8 -8 5 -20 13 -25 38 -25 39 -1 45 -7 46 -42 0 -15 2 -22 4
-15 3 6 9 12 14 12 6 0 7 -6 3 -12 -6 -10 -4 -10 7 0 16 14 33 16 24 2 -3 -5
-1 -10 6 -10 6 0 9 8 6 20 -3 11 -1 18 4 14 5 -3 9 4 9 15 0 13 6 21 18 21 14
0 15 -2 2 -10 -9 -6 -10 -10 -3 -10 7 0 17 8 22 18 6 9 11 11 11 5 0 -7 6 -12
13 -10 6 1 11 -4 9 -11 -2 -10 4 -11 19 -7 19 6 21 4 17 -18 -4 -18 -1 -24 9
-20 7 3 11 9 8 13 -3 5 0 12 6 15 20 13 19 -2 -3 -30 l-21 -28 22 13 c26 13
29 12 34 -18 4 -26 17 -42 17 -20 0 10 8 13 28 10 21 -3 29 0 29 12 0 8 -4 13
-9 10 -4 -3 -8 2 -8 10 0 10 6 13 17 9 10 -4 14 -2 9 5 -4 7 2 8 21 3 16 -4
34 -6 42 -3 9 3 11 0 6 -8 -5 -9 -2 -10 13 -6 11 4 23 2 27 -3 3 -6 0 -9 -7
-6 -7 3 -20 1 -28 -5 -13 -8 -13 -11 -1 -22 10 -10 12 -10 7 0 -4 6 -2 12 3
12 6 0 11 -4 11 -10 0 -5 5 -10 11 -10 5 0 7 5 3 12 -5 8 -2 9 10 5 10 -4 22
-7 27 -7 6 0 7 -5 4 -10 -4 -6 -11 -7 -17 -4 -7 4 -8 2 -4 -5 4 -6 12 -9 17
-6 5 4 9 0 9 -8 0 -22 29 -42 41 -30 8 8 7 13 0 17 -6 4 -11 2 -11 -5 0 -10
-3 -10 -11 -2 -13 13 -2 56 13 47 6 -4 5 -10 -3 -15 -11 -7 -11 -9 2 -9 9 0
19 -7 23 -15 9 -25 26 -17 26 12 0 24 1 25 13 9 7 -9 19 -18 27 -20 39 -8 49
-18 45 -47 -3 -26 -1 -29 16 -24 11 4 19 2 19 -5 0 -6 5 -8 13 -3 6 4 15 8 19
8 3 0 10 4 15 9 5 5 2 6 -6 1 -9 -5 -12 -4 -7 3 4 7 2 12 -3 12 -6 0 -11 5
-11 12 0 6 9 3 20 -7 12 -10 18 -25 16 -32 -3 -7 -1 -13 3 -13 11 0 25 30 23
50 -1 10 0 11 4 2 3 -6 11 -9 17 -6 8 5 8 2 0 -7 -18 -18 -16 -29 5 -29 15 0
15 -2 2 -11 -12 -8 -10 -9 9 -4 17 5 22 4 16 -5 -6 -9 -4 -11 5 -5 10 6 9 12
-7 24 -20 16 -20 17 6 36 l26 19 -19 -22 c-11 -12 -15 -23 -10 -24 5 0 14 -2
19 -3 6 -2 17 -3 25 -4 12 -1 12 -4 -3 -15 -17 -13 -15 -14 15 -15 72 -3 83
-6 85 -26 2 -17 2 -17 -5 -3 -5 12 -11 15 -22 8 -8 -5 -11 -12 -7 -16 4 -4 1
-14 -6 -23 -10 -14 -10 -14 3 -5 8 6 28 14 44 18 26 6 28 5 17 -8 -7 -8 -20
-12 -29 -10 -14 5 -15 4 -2 -4 25 -17 88 -21 107 -7 14 11 20 9 35 -10 10 -13
18 -30 18 -39 0 -10 6 -13 15 -10 11 4 13 2 10 -9 -4 -10 2 -16 20 -19 14 -3
28 -1 31 3 3 5 -1 9 -9 9 -8 0 -18 7 -21 16 -5 13 -4 14 7 5 8 -6 25 -12 39
-13 16 -1 24 -7 21 -15 -3 -7 0 -13 6 -13 6 0 11 -6 11 -12 -1 -7 -10 -2 -21
11 l-20 24 -6 -21 c-3 -12 -10 -22 -17 -23 -6 0 -2 -4 9 -9 27 -12 37 -12 30
0 -3 6 1 7 9 4 9 -3 13 -11 10 -18 -3 -6 1 -3 9 7 17 20 31 9 16 -13 -18 -29
-8 -32 15 -5 13 15 29 24 35 21 16 -10 14 9 -3 23 -11 9 -15 9 -19 -1 -3 -7
-6 -1 -6 14 -1 15 3 30 9 33 6 4 7 -1 3 -11 -4 -12 -3 -15 5 -10 7 4 12 1 12
-8 0 -9 6 -16 14 -16 16 0 29 -27 21 -41 -4 -5 2 -6 11 -2 13 5 15 3 9 -7 -5
-8 -4 -11 3 -7 5 4 8 17 5 30 -4 19 -3 20 7 4 9 -14 15 -15 33 -7 21 11 21 11
3 -4 -11 -9 -16 -16 -10 -16 5 0 4 -4 -3 -8 -9 -5 -9 -12 0 -29 10 -18 14 -19
25 -7 7 8 8 14 2 14 -5 0 -10 8 -9 18 0 10 3 12 6 4 2 -6 9 -10 13 -7 5 3 7
12 4 19 -7 18 12 30 22 15 4 -8 3 -9 -4 -5 -7 4 -12 3 -12 -2 0 -15 28 -23 36
-10 4 6 16 -1 30 -17 18 -21 24 -24 24 -12 0 10 8 17 18 16 10 0 12 -3 5 -6
-7 -2 -13 -9 -13 -14 0 -6 4 -8 9 -4 5 3 12 1 16 -5 3 -5 0 -10 -8 -10 -8 0
-21 -8 -28 -17 -11 -15 -11 -16 1 -5 16 14 54 17 46 3 -3 -5 1 -12 9 -15 13
-4 13 -2 5 14 -9 17 -7 19 17 17 16 -1 34 -10 41 -19 17 -23 38 -23 46 -1 5
11 9 14 14 6 4 -6 16 -12 27 -15 14 -2 20 -11 20 -30 0 -15 5 -27 10 -25 6 1
9 10 9 20 -1 9 2 17 7 17 5 0 7 -10 5 -22 -2 -13 3 -31 12 -40 12 -15 13 -20
1 -35 -7 -10 -9 -15 -5 -11 5 4 15 3 23 -4 11 -9 13 -8 11 3 -2 8 3 13 10 11
8 -1 11 2 7 8 -3 6 -11 8 -16 5 -5 -4 -9 0 -9 8 0 23 27 39 51 32 17 -6 19 -9
8 -16 -11 -7 -10 -9 4 -9 9 0 17 7 17 17 0 15 1 15 18 0 10 -10 28 -17 39 -17
16 0 20 -5 16 -20 -3 -12 0 -20 6 -20 7 0 11 -6 10 -12 -4 -32 1 -41 15 -29
12 10 14 9 12 -5 -2 -10 -8 -20 -14 -22 -7 -2 -12 -8 -12 -14 0 -6 8 -4 18 5
10 10 22 14 26 10 4 -4 4 0 0 10 -5 13 -2 16 10 11 19 -7 20 -17 5 -47 -9 -20
-9 -20 4 -5 8 10 17 15 20 11 4 -3 7 -1 7 6 0 7 5 9 10 6 9 -6 14 8 11 28 0 4
8 7 20 7 19 0 19 -1 5 -16 -21 -20 -20 -23 4 -17 14 4 19 1 17 -8 -2 -8 -2
-11 0 -6 3 4 9 4 15 1 6 -4 8 1 3 15 -4 13 -2 21 5 21 6 0 8 5 4 12 -4 7 -3 8
5 4 6 -4 9 -12 6 -17 -9 -13 9 -11 25 4 12 10 12 9 1 -5 -11 -15 -11 -19 2
-24 9 -3 13 -12 10 -20 -3 -9 0 -14 7 -12 7 2 15 -3 18 -11 3 -9 0 -11 -8 -6
-9 5 -11 4 -6 -3 4 -7 14 -12 21 -12 8 0 12 -6 9 -14 -3 -8 4 -16 18 -19 29
-8 45 7 29 26 -7 9 -8 23 -3 37 7 19 9 20 21 6 13 -15 36 -13 27 3 -3 4 1 8 9
8 12 0 12 -3 0 -20 -11 -16 -12 -25 -2 -41 6 -12 10 -24 9 -28 -1 -3 6 -9 15
-12 14 -6 14 -4 -1 19 -9 14 -12 25 -7 25 5 0 12 -7 15 -16 5 -12 14 -14 34
-10 20 5 23 4 12 -3 -12 -8 -12 -13 -2 -23 9 -9 12 -9 12 0 0 7 7 12 15 12 20
0 19 -20 -2 -37 -10 -8 -13 -12 -6 -9 6 4 14 -2 17 -12 4 -10 22 -22 45 -28
l39 -11 -8 29 c-5 16 -5 30 1 33 5 4 9 -1 9 -9 0 -9 7 -16 15 -16 8 0 15 -4
15 -10 0 -5 -8 -7 -17 -4 -10 2 -8 -1 5 -8 18 -9 28 -9 42 0 16 10 18 9 14 -3
-5 -11 -2 -13 10 -9 9 3 16 1 16 -6 0 -6 -3 -9 -8 -6 -12 7 -39 -17 -39 -36 0
-14 3 -15 14 -7 12 10 17 6 14 -13 0 -4 6 -5 14 -2 11 5 13 2 9 -10 -3 -9 -1
-16 5 -16 6 0 10 6 9 12 -2 7 4 13 12 13 8 0 14 -6 12 -14 -3 -12 0 -12 12 -2
9 7 13 18 9 25 -4 8 -3 8 6 0 7 -6 13 -20 14 -32 0 -11 5 -19 9 -16 4 3 5 11
1 19 -3 8 -1 15 4 15 20 0 23 -14 8 -37 -17 -26 -11 -31 11 -8 9 8 13 15 9 15
-3 0 -3 5 1 11 4 8 9 7 15 -2 6 -10 9 -7 10 11 1 17 3 19 6 8 2 -10 12 -18 21
-18 15 0 15 -2 2 -10 -9 -6 -10 -10 -3 -10 6 0 15 5 19 11 4 8 11 3 20 -12 7
-13 16 -24 21 -24 4 0 14 -4 21 -8 7 -5 12 -4 12 2 0 6 5 11 10 11 6 0 10 -16
10 -35 0 -29 4 -35 21 -35 11 0 17 5 14 10 -4 6 -11 7 -17 4 -7 -4 -8 -2 -4 5
12 18 35 -6 29 -29 -4 -16 0 -20 17 -20 18 0 21 4 18 24 -5 23 -4 24 18 9 13
-8 27 -12 33 -9 5 3 7 -3 4 -14 -4 -15 0 -20 14 -20 17 0 28 -10 51 -46 4 -6
18 -15 31 -19 18 -5 22 -4 16 6 -4 8 2 3 13 -11 11 -13 18 -28 16 -32 -3 -4 0
-8 6 -8 6 0 8 -6 4 -12 -4 -7 2 -4 15 6 17 16 24 17 34 7 9 -10 8 -11 -8 -6
-15 5 -16 4 -6 -3 7 -5 18 -16 23 -23 8 -11 9 -10 4 4 -3 9 -1 17 5 17 6 0 7
5 3 12 -4 7 -3 8 5 4 6 -4 9 -16 6 -27 -5 -14 -3 -17 9 -13 9 4 16 1 16 -6 0
-7 7 -10 15 -7 8 4 17 1 21 -5 4 -6 3 -8 -2 -5 -6 3 -16 2 -24 -3 -9 -5 -19
-5 -26 1 -8 7 -14 6 -19 -1 -6 -9 -2 -12 28 -14 21 -2 37 -29 25 -44 -8 -9 -7
-11 4 -7 9 4 18 -1 22 -10 3 -9 10 -13 16 -10 6 4 6 -4 -1 -19 -7 -14 -15 -25
-18 -24 -18 2 -21 -4 -7 -17 16 -16 27 -20 24 -7 -5 16 23 51 37 46 22 -9 18
-24 -6 -24 -11 0 -17 -5 -14 -10 4 -7 12 -7 25 0 19 10 50 -9 50 -32 0 -6 3
-8 7 -5 3 4 12 2 20 -4 8 -7 13 -8 13 -1 0 14 -25 33 -33 25 -4 -3 -7 -1 -7 5
0 14 36 26 51 17 7 -5 7 -11 1 -17 -6 -6 -8 -17 -5 -25 5 -12 7 -12 14 -1 7
10 9 10 9 0 0 -7 -7 -15 -15 -18 -20 -8 -9 -24 17 -24 14 0 18 5 15 15 -4 8
-3 16 1 19 4 2 9 -6 10 -19 1 -17 -4 -25 -18 -27 -15 -2 -17 -6 -9 -18 8 -11
12 -12 16 -2 7 17 26 15 20 -3 -4 -8 -2 -17 3 -20 5 -3 10 4 12 15 2 15 7 17
18 10 12 -8 13 -13 3 -29 -13 -21 -1 -24 26 -6 10 5 16 4 19 -3 2 -7 11 -12
20 -12 15 0 15 -2 2 -10 -8 -5 -17 -5 -20 -1 -6 9 -38 6 -48 -4 -4 -4 2 -5 13
-3 12 2 20 -3 20 -11 0 -16 33 -30 55 -23 10 3 12 2 5 -6 -5 -5 -19 -12 -30
-15 -16 -4 -14 -5 6 -6 15 0 30 -8 33 -18 6 -15 8 -15 16 -3 5 8 7 23 4 34 -4
13 -2 17 7 14 17 -6 19 -30 4 -40 -6 -5 -2 -8 8 -8 14 0 17 -5 12 -21 -5 -15
-4 -19 4 -15 6 4 11 1 11 -7 0 -7 7 -14 15 -14 8 0 12 4 10 8 -3 3 2 12 10 19
19 16 40 -5 40 -40 1 -19 5 -24 20 -22 16 3 17 2 6 -12 -11 -13 -17 -14 -30
-4 -14 12 -15 11 -2 -5 8 -10 23 -23 33 -28 18 -9 18 -8 8 10 -6 12 -7 21 -2
21 15 0 22 -42 11 -57 -12 -14 -2 -36 12 -27 5 3 8 0 7 -8 -2 -7 3 -12 10 -10
8 1 11 -2 7 -8 -3 -6 -10 -8 -13 -6 -4 2 -7 -10 -7 -29 0 -26 4 -32 17 -30 10
2 17 -1 15 -7 -1 -6 4 -13 11 -15 6 -3 12 0 12 6 0 6 5 11 11 11 5 0 7 -5 3
-12 -5 -7 -2 -9 8 -6 9 4 15 0 15 -8 0 -9 -7 -13 -16 -9 -11 3 -11 1 3 -9 10
-8 16 -22 13 -30 -8 -20 3 -28 20 -15 9 9 13 8 13 0 0 -6 4 -11 9 -11 4 0 6
12 3 26 -3 16 1 30 9 35 18 11 32 11 25 0 -4 -5 -2 -11 4 -13 6 -2 6 -8 0 -18
-8 -13 -10 -12 -10 3 0 9 -4 17 -10 17 -5 0 -10 -4 -10 -9 0 -13 26 -32 33
-24 4 3 7 2 7 -3 0 -6 -5 -15 -12 -22 -9 -9 -9 -12 1 -12 9 0 11 -6 6 -17 -20
-52 -14 -78 13 -51 17 17 27 -16 12 -39 -9 -15 -10 -13 -5 12 5 28 4 29 -9 12
-16 -20 -11 -46 8 -48 6 -1 0 -5 -14 -9 l-25 -8 26 -1 c25 -1 26 -3 24 -58 -4
-101 -5 -106 -12 -99 -10 10 -12 35 -3 41 14 9 -1 45 -19 45 -13 0 -13 -2 -2
-9 17 -11 5 -55 -12 -44 -8 5 -8 2 0 -9 7 -8 10 -17 7 -21 -3 -3 3 -10 14 -16
11 -6 22 -7 26 -4 3 3 6 1 6 -5 0 -6 -5 -14 -11 -17 -6 -4 -8 -13 -5 -21 4 -9
-2 -14 -16 -14 -17 0 -18 -2 -8 -15 9 -10 9 -19 2 -27 -15 -20 -25 -78 -13
-78 6 0 8 7 5 15 -4 10 0 15 10 15 14 0 15 -4 6 -20 -6 -11 -15 -20 -20 -20
-6 0 -10 -5 -10 -11 0 -6 6 -9 13 -6 8 3 20 1 28 -5 11 -8 11 -9 -3 -4 -10 3
-20 1 -23 -5 -4 -5 -11 -7 -16 -4 -5 4 -9 -5 -9 -19 0 -14 5 -28 10 -31 12 -7
14 -36 3 -34 -27 4 -45 -4 -55 -26 -6 -13 -14 -22 -18 -20 -10 6 -22 -69 -14
-88 3 -8 1 -18 -5 -22 -7 -3 -8 0 -5 9 4 12 0 16 -16 16 -18 0 -20 -3 -11 -14
9 -11 6 -13 -18 -11 -31 3 -52 -22 -30 -36 8 -4 6 -10 -7 -18 -17 -10 -17 -11
6 -12 19 -1 20 -2 7 -6 -15 -4 -18 -12 -15 -34 3 -22 2 -26 -8 -18 -8 7 -14 7
-19 -1 -3 -5 -1 -10 4 -10 6 0 11 -7 11 -15 0 -8 -3 -14 -7 -12 -5 1 -8 -3 -8
-8 0 -6 4 -9 11 -7 6 1 11 -4 11 -12 0 -15 -14 -16 -35 -2 -11 7 -11 4 0 -13
7 -12 16 -21 20 -21 5 0 8 -5 8 -12 0 -6 -3 -8 -7 -5 -10 11 -33 -13 -33 -35
0 -10 5 -16 10 -13 6 4 7 11 4 17 -4 6 -2 8 4 4 5 -3 13 0 15 6 3 8 6 8 6 2 1
-6 -8 -19 -19 -29 -11 -10 -20 -24 -20 -31 0 -19 -33 -34 -58 -27 -25 6 -29
-9 -7 -31 9 -9 11 -17 5 -21 -5 -3 -10 -2 -10 4 0 6 -7 7 -17 4 -11 -4 -14 -3
-9 5 4 7 2 10 -7 6 -7 -2 -20 -20 -27 -39 -15 -37 -49 -60 -86 -57 -13 1 -24
-3 -24 -9 0 -6 7 -9 15 -6 8 4 17 2 20 -3 4 -6 -3 -10 -14 -10 -12 0 -21 -4
-21 -10 0 -5 -4 -10 -9 -10 -4 0 -7 12 -4 28 l3 27 -12 -25 c-6 -14 -11 -33
-11 -42 0 -11 -7 -18 -18 -18 -11 0 -19 5 -19 11 0 5 5 7 10 4 6 -3 10 1 10
11 0 13 -3 14 -13 5 -8 -6 -16 -8 -19 -6 -3 3 -3 -7 -1 -22 3 -16 1 -24 -4
-18 -4 6 -18 11 -31 11 -18 1 -22 -3 -20 -20 2 -11 9 -20 16 -18 10 2 10 -3 2
-17 -12 -23 -30 -36 -30 -22 0 5 6 11 13 14 9 4 9 7 0 17 -10 11 -15 11 -27 0
-9 -7 -13 -16 -10 -21 3 -5 0 -9 -5 -9 -6 0 -11 5 -11 12 0 6 -7 3 -15 -8 -8
-11 -15 -14 -15 -6 0 24 -20 11 -20 -14 0 -16 4 -23 12 -18 7 4 8 3 4 -5 -9
-14 -26 -5 -26 15 0 8 -4 14 -10 14 -9 0 -14 -14 -11 -32 0 -5 -5 -8 -13 -8
-17 0 -28 -37 -12 -44 6 -3 -2 -4 -19 -3 -18 1 -29 -3 -28 -9 1 -7 -8 -11 -21
-10 -14 0 -22 6 -19 13 3 6 11 9 19 6 8 -3 14 0 14 6 0 16 -26 14 -44 -4 -8
-8 -19 -15 -25 -15 -14 0 -14 -6 -1 -30 6 -12 18 -17 30 -15 11 2 18 0 15 -4
-2 -5 -19 -7 -35 -6 -25 2 -30 -1 -26 -14 5 -14 5 -14 -6 -1 -14 16 -58 15
-58 -1 0 -5 -5 -9 -11 -9 -5 0 -7 5 -3 12 4 7 3 8 -4 4 -7 -4 -12 -15 -12 -24
0 -38 -72 -68 -84 -35 -6 16 6 17 21 2 8 -8 13 -7 18 2 5 7 4 10 -2 6 -6 -4
-14 0 -17 9 -4 12 -2 15 9 10 8 -3 15 0 15 7 0 8 4 7 10 -3 5 -8 12 -11 17 -7
4 5 1 12 -7 17 -20 13 -20 13 -58 -10 -27 -17 -31 -24 -22 -35 9 -11 7 -13 -7
-11 -11 2 -17 11 -16 22 1 19 1 19 -12 0 -8 -10 -21 -16 -29 -13 -9 4 -17 -2
-21 -14 -6 -19 -8 -19 -24 -5 -16 15 -17 13 -14 -24 2 -22 -2 -40 -7 -40 -9 0
-14 14 -11 33 0 4 -4 7 -10 7 -6 0 -8 -7 -5 -16 6 -15 4 -15 -11 -3 -15 12
-16 12 -10 -4 4 -11 3 -16 -3 -12 -6 3 -10 1 -10 -4 0 -6 -8 -3 -18 7 -11 9
-17 20 -16 23 2 4 -3 12 -10 18 -12 10 -13 9 -9 -7 4 -17 0 -19 -34 -16 -29 2
-34 0 -20 -7 15 -9 15 -12 3 -25 -20 -20 -33 -18 -59 9 -12 13 -16 15 -9 6 11
-14 10 -18 -3 -23 -9 -3 -21 -4 -26 0 -5 3 -9 1 -9 -4 0 -12 -49 -12 -56 -1
-9 15 -26 10 -20 -6 3 -8 1 -15 -4 -15 -5 0 -7 -7 -3 -16 3 -8 12 -13 21 -9
12 5 13 3 2 -10 -15 -18 -28 -9 -33 23 -2 12 -8 27 -15 34 -8 8 -10 5 -7 -15
3 -15 -1 -32 -9 -40 -8 -8 -12 -17 -9 -21 4 -3 1 -6 -5 -6 -7 0 -12 5 -12 11
0 14 -43 0 -53 -17 -8 -15 -57 -15 -57 -1 0 5 -7 7 -15 3 -8 -3 -15 -2 -15 3
0 5 -8 11 -19 14 -21 5 -24 -22 -4 -38 18 -14 2 -37 -17 -25 -12 8 -11 10 5
11 13 0 8 4 -12 10 -18 5 -33 14 -33 19 0 6 -9 5 -20 -2 -11 -7 -20 -19 -20
-27 0 -12 3 -12 18 1 9 9 23 13 30 11 15 -6 16 -33 1 -33 -5 0 -7 5 -4 11 4 6
-1 5 -13 -2 -23 -14 -57 -5 -46 13 4 6 -4 3 -18 -8 -14 -10 -24 -22 -22 -26 2
-3 -4 -5 -13 -3 -10 2 -24 4 -31 4 -7 1 -11 5 -7 10 3 5 1 12 -5 16 -5 3 -10
2 -10 -4 0 -6 -9 -15 -20 -21 -15 -8 -18 -8 -14 4 4 9 -3 13 -21 13 -18 0 -29
-7 -35 -21 -5 -11 -9 -15 -9 -8 -1 7 -5 10 -11 7 -5 -3 -10 0 -10 7 0 10 -2
10 -9 0 -4 -8 -12 -14 -17 -14 -5 1 -8 -6 -6 -13 2 -10 -3 -13 -13 -9 -8 3
-15 12 -15 20 0 8 -4 14 -9 14 -5 0 -8 -10 -6 -23 4 -17 0 -23 -15 -24 -11 -1
-20 2 -20 8 0 5 5 9 10 9 6 0 10 5 10 11 0 5 -4 7 -10 4 -5 -3 -10 1 -10 11 0
14 -2 15 -17 3 -15 -12 -16 -12 -8 1 5 9 0 7 -14 -4 -18 -17 -21 -17 -15 -3 3
9 2 17 -4 17 -6 0 -15 -12 -20 -27 -6 -16 -11 -22 -11 -15 -1 6 -8 12 -17 12
-13 0 -15 -7 -10 -32 6 -31 6 -31 -10 -13 -16 20 -16 20 -10 0 6 -19 5 -19 -8
-2 -8 10 -17 14 -20 8 -3 -5 -14 -8 -24 -7 -9 2 -20 -2 -24 -7 -4 -8 -15 -7
-32 1 -15 7 -26 7 -26 2 0 -10 -82 -6 -99 4 -5 4 -12 2 -16 -4 -10 -17 -85
-13 -85 5 0 8 -4 15 -10 15 -5 0 -6 -8 -3 -17 6 -15 4 -16 -9 -6 -22 19 -31 3
-11 -20 18 -19 17 -20 -7 -6 -14 8 -32 14 -40 14 -8 1 -14 7 -12 15 3 11 0 11
-14 -1 -12 -9 -15 -9 -10 -1 4 6 2 12 -3 12 -6 0 -11 -7 -11 -15 0 -12 -4 -13
-19 -6 -10 6 -21 8 -24 4 -3 -3 -23 -7 -44 -8 -21 -1 -46 -3 -55 -4 -12 -1
-15 -6 -11 -18 4 -11 3 -14 -5 -9 -7 4 -12 2 -12 -3 0 -6 -7 -11 -15 -11 -8 0
-15 4 -15 9 0 5 7 11 15 15 8 3 15 11 14 18 0 10 -2 10 -6 1 -2 -7 -9 -13 -14
-13 -6 0 -8 4 -5 8 2 4 -6 9 -19 10 -16 1 -28 -6 -35 -18 -6 -12 -21 -20 -35
-20 -13 0 -26 -4 -30 -10 -6 -9 -36 -2 -45 11 -3 4 -14 0 -25 -8 -18 -14 -18
-15 -2 -9 13 4 17 2 14 -6 -2 -7 -12 -13 -23 -13 -25 0 -54 24 -47 40 2 7 -2
16 -9 21 -7 4 -10 4 -6 -1 4 -4 3 -16 -3 -26 -7 -15 -6 -19 5 -19 22 0 28 -16
10 -31 -12 -10 -15 -10 -12 1 2 7 -3 15 -9 17 -7 3 -13 -3 -13 -12 0 -9 -5
-13 -10 -10 -6 4 -8 11 -5 16 8 11 -15 12 -34 0 -9 -6 -20 -2 -32 10 -11 11
-25 19 -31 19 -10 0 -9 -3 1 -9 9 -6 10 -10 2 -16 -9 -5 -9 -10 -1 -20 8 -10
3 -11 -25 -8 -32 3 -35 1 -35 -22 0 -25 -1 -26 -17 -9 -13 13 -14 19 -5 22 6
2 12 8 12 13 0 6 -4 7 -10 4 -5 -3 -10 4 -10 16 0 16 -5 20 -20 16 -18 -5 -25
4 -21 26 1 5 -3 6 -8 2 -6 -3 -8 -12 -5 -19 7 -18 -22 -27 -58 -21 -17 3 -28
1 -28 -5 0 -6 4 -9 9 -5 5 3 12 2 15 -3 2 -4 -4 -9 -15 -9 -10 -1 -19 2 -19 6
0 4 -11 7 -24 7 -14 0 -22 -4 -20 -8 3 -5 10 -6 15 -3 14 9 23 -25 10 -38 -10
-9 -12 -9 -9 2 3 13 -13 19 -59 24 -13 1 -21 8 -20 19 1 12 5 14 14 7 7 -6 18
-9 25 -6 9 4 7 6 -4 6 -9 1 -18 5 -20 10 -1 5 -21 12 -43 16 l-40 6 30 -14
c21 -10 26 -15 16 -21 -8 -5 -16 -4 -21 4 -6 9 -12 9 -29 1 -21 -12 -57 -11
-77 1 -6 4 -11 1 -11 -7 0 -8 5 -12 10 -8 5 3 7 -5 3 -18 -3 -13 -3 -18 0 -11
3 6 10 12 16 12 24 0 -12 -26 -39 -28 -27 -1 -27 -1 -9 13 18 13 15 20 -7 16
-4 -1 -10 6 -14 15 -3 9 -9 11 -12 6 -4 -6 -11 -4 -19 4 -7 8 -8 14 -2 14 5 0
10 5 10 11 0 8 -4 8 -14 -1 -8 -6 -13 -17 -10 -25 3 -7 0 -16 -6 -20 -6 -3
-10 -3 -9 2 5 29 -2 36 -17 17 -8 -10 -13 -13 -9 -6 3 6 2 12 -4 12 -5 0 -12
-18 -16 -40 -4 -22 -11 -43 -16 -46 -5 -3 -9 -2 -8 3 4 16 -13 43 -27 43 -7 0
-18 -15 -23 -32 -5 -18 -10 -25 -10 -15 -1 9 -9 17 -19 17 -11 0 -18 8 -19 21
-2 29 -18 45 -28 28 -5 -7 -4 -10 2 -6 7 4 10 -3 9 -18 -1 -31 -11 -32 -21 -2
-8 25 -8 26 -2 47 2 8 2 12 0 7 -3 -4 -10 -4 -16 0 -6 4 -8 0 -4 -10 3 -10 2
-17 -3 -17 -6 0 -10 6 -10 13 0 8 -4 7 -10 -3 -5 -8 -10 -11 -10 -7 0 5 -5 5
-11 1 -7 -4 -1 -12 17 -20 28 -12 28 -13 4 -11 -32 2 -49 18 -42 37 5 13 4 13
-10 0 -9 -8 -14 -23 -12 -34 2 -10 0 -15 -4 -12 -4 4 -7 13 -7 19 0 6 -12 14
-28 18 -16 4 -25 3 -21 -2 3 -5 -1 -9 -9 -9 -8 0 -18 -10 -24 -22 -9 -22 -10
-21 -22 14 -9 28 -16 35 -31 31 -12 -3 -20 0 -20 7 0 7 -6 5 -16 -5 -14 -13
-19 -14 -25 -3 -8 13 -13 -3 -12 -39 1 -14 -11 -9 -41 16 -16 13 -18 13 -11 1
5 -8 11 -24 13 -35 3 -20 3 -20 -12 0 -9 11 -16 30 -16 43 0 12 -4 22 -10 22
-5 0 -7 -6 -4 -14 3 -8 0 -17 -7 -22 -7 -4 -10 -3 -6 3 4 6 0 16 -8 23 -13 11
-14 10 -10 -2 4 -9 -1 -18 -10 -22 -11 -4 -15 -13 -11 -24 5 -15 5 -15 -6 -1
-7 9 -18 14 -24 12 -7 -2 -21 8 -32 22 l-20 26 -8 -23 c-4 -13 -8 -27 -8 -33
-1 -11 -9 -15 -27 -15 -7 0 -9 9 -6 23 6 21 6 21 -9 2 -8 -11 -12 -26 -9 -35
3 -8 -7 -1 -22 15 -24 27 -26 28 -21 8 4 -13 1 -26 -4 -30 -6 -3 -9 -2 -5 3 3
5 -1 18 -9 29 -14 19 -15 19 -10 -7 2 -16 0 -28 -5 -28 -5 0 -9 12 -9 28 0 19
-3 23 -9 13 -10 -16 -20 -3 -16 22 2 9 -1 17 -6 17 -5 0 -9 -8 -9 -17 -1 -14
-4 -12 -15 7 -9 16 -14 19 -15 10 0 -9 -14 -31 -31 -50 -17 -19 -28 -29 -24
-22 4 8 -3 12 -22 12 -19 0 -24 -3 -15 -9 11 -6 10 -10 -4 -15 -15 -6 -16 -1
-11 35 4 31 2 38 -6 30 -6 -6 -21 -11 -33 -11 -13 0 -26 -5 -30 -12 -5 -7 -3
-8 7 -3 12 8 12 6 0 -8 -18 -23 -24 -15 -24 30 0 21 -2 30 -4 20 -2 -9 -9 -15
-14 -12 -5 4 -5 15 2 27 11 20 10 20 -22 -2 -18 -13 -29 -19 -26 -13 4 7 2 15
-5 19 -7 4 -10 4 -6 0 4 -5 2 -20 -3 -34 -9 -23 -8 -24 7 -11 16 13 16 12 4
-8 -8 -12 -17 -20 -21 -17 -4 2 -10 0 -13 -5 -6 -9 -50 -6 -68 6 -5 3 -7 11
-4 19 3 8 1 14 -4 14 -6 0 -10 7 -10 16 0 8 -5 12 -11 8 -6 -3 -9 -15 -6 -25
3 -10 0 -22 -5 -26 -7 -4 -8 -1 -3 7 5 9 1 11 -16 6 -13 -3 -18 -3 -12 0 9 4
10 11 3 24 -8 14 -6 20 8 23 13 4 11 5 -5 6 -16 1 -23 -5 -23 -16 -1 -17 -1
-17 -14 0 -13 17 -32 24 -22 8 4 -5 -3 -7 -15 -4 -19 5 -20 3 -10 -14 14 -28
4 -35 -24 -17 -19 12 -23 13 -28 1 -3 -8 -14 -17 -25 -19 -16 -5 -20 -1 -17
13 2 11 6 23 10 28 3 5 0 13 -6 17 -7 4 -9 3 -6 -3 3 -5 -3 -22 -14 -39 -10
-16 -19 -24 -19 -17 0 6 4 15 10 18 6 4 5 13 -2 25 -7 10 -16 16 -20 13 -5 -2
-4 -11 2 -18 8 -9 8 -15 0 -20 -5 -3 -10 -1 -10 6 0 8 -4 8 -15 -1 -15 -12
-22 0 -8 14 4 3 7 15 8 27 1 13 -2 16 -9 9 -5 -5 -20 -10 -32 -10 -13 0 -25
-4 -28 -9 -3 -5 -15 -11 -27 -14 -15 -4 -19 -2 -15 9 4 11 2 12 -14 1 -11 -6
-20 -21 -21 -32 0 -18 -1 -18 -10 3 -5 13 -13 21 -19 17 -6 -4 -7 1 -3 10 4
13 7 14 14 3 7 -11 10 -10 21 1 10 10 10 12 1 7 -7 -4 -13 -2 -13 3 0 6 -6 11
-14 11 -8 0 -16 4 -18 9 -1 4 -12 5 -23 0 -19 -7 -19 -8 3 -8 12 -1 22 -5 22
-10 0 -10 -68 3 -78 15 -4 4 1 4 10 1 11 -4 17 -2 15 5 -1 7 4 13 11 14 6 1
17 2 22 3 6 0 10 5 10 10 0 6 -9 8 -20 6 -14 -3 -20 2 -20 13 -1 16 -1 16 -11
0 -12 -22 -33 -24 -25 -2 3 8 2 12 -4 9 -6 -3 -10 -13 -10 -22 0 -13 -2 -14
-17 -2 -16 12 -17 12 -6 -1 7 -10 9 -21 3 -30 -6 -9 -4 -20 3 -30 10 -13 10
-13 -4 -3 -9 7 -19 9 -23 5 -4 -4 -6 0 -4 8 2 8 -2 14 -8 13 -7 -1 -10 10 -8
27 2 16 -2 32 -8 36 -7 4 -8 3 -4 -4 4 -7 2 -20 -3 -29 -10 -16 -10 -17 -11
-1 0 9 -6 20 -12 24 -7 4 -10 4 -6 -1 4 -4 2 -15 -5 -23 -9 -13 -9 -14 1 -8
19 11 14 -5 -5 -20 -13 -9 -22 -9 -30 -2 -9 7 -13 7 -13 0 0 -15 -28 -23 -36
-9 -4 7 -4 9 1 5 13 -12 35 12 28 29 -5 12 -3 14 7 8 9 -5 11 -4 6 4 -4 6 -12
8 -18 5 -7 -5 -9 -2 -6 8 4 8 0 15 -8 15 -7 0 -11 -4 -9 -8 3 -3 -2 -12 -9
-18 -12 -10 -13 -8 -9 10 5 17 3 20 -8 13 -16 -10 -44 -15 -35 -7 7 7 -14 27
-37 36 -10 4 -16 11 -12 16 3 5 0 13 -7 17 -7 4 -10 4 -6 -1 4 -4 3 -14 -4
-22 -6 -8 -7 -13 -2 -12 5 1 17 -1 27 -6 26 -11 2 -24 -34 -18 -20 3 -31 -1
-35 -12 -6 -14 -8 -13 -23 3 -9 11 -24 18 -33 16 -14 -2 -15 2 -7 23 8 23 8
24 -6 13 -13 -11 -14 -10 -9 6 4 10 12 26 18 34 6 8 -6 1 -26 -14 -31 -23 -38
-25 -38 -12 0 10 4 15 9 11 5 -3 12 -1 15 4 3 5 -3 11 -14 14 -15 4 -20 -2
-25 -24 -7 -29 -22 -46 -32 -35 -3 3 0 12 6 20 11 13 8 14 -14 10 -22 -4 -26
-2 -21 11 4 11 2 14 -7 8 -6 -4 -18 -8 -25 -9 -19 -3 -27 -13 -18 -21 4 -4 11
-1 16 7 8 13 10 13 10 1 0 -8 3 -11 7 -8 3 4 13 -2 21 -14 9 -13 21 -19 33
-16 11 3 19 1 19 -4 0 -14 -36 -10 -50 6 -6 8 -15 14 -18 13 -23 -3 -62 3 -61
10 1 4 0 10 -1 15 -1 4 -3 13 -4 20 -1 6 -12 11 -25 9 -20 -2 -22 0 -11 13 7
8 8 15 4 15 -5 0 -15 -9 -21 -19 -10 -16 -9 -20 8 -24 10 -3 19 -1 19 4 0 5 5
9 11 9 8 0 9 -4 0 -13 -6 -8 -8 -17 -4 -20 3 -4 1 -7 -5 -7 -7 0 -12 5 -12 11
0 6 -9 9 -20 6 -11 -3 -18 -1 -14 4 3 5 0 9 -5 9 -6 0 -10 5 -8 11 1 6 -5 14
-13 16 -9 3 -11 1 -4 -4 7 -5 6 -16 -4 -33 -12 -22 -13 -23 -9 -3 4 18 1 21
-25 21 -16 -1 -24 -4 -18 -8 7 -4 1 -9 -14 -12 -23 -5 -24 -3 -14 10 11 13 10
15 -4 9 -10 -3 -18 -3 -18 2 0 5 -17 7 -37 4 -34 -3 -40 -1 -55 27 -17 29 -38
40 -38 19 0 -5 4 -8 9 -4 16 9 25 -16 10 -27 -11 -8 -10 -9 4 -4 9 3 17 1 17
-4 0 -6 -4 -10 -9 -10 -5 0 -16 -3 -25 -6 -11 -4 -16 0 -17 12 0 11 -3 14 -6
7 -2 -7 -9 -13 -15 -13 -6 0 -4 8 5 18 24 27 21 32 -13 22 -18 -5 -30 -5 -30
1 0 5 6 9 13 9 7 0 22 7 33 16 18 14 18 15 -5 4 -17 -9 -30 -9 -46 -2 -18 8
-25 8 -29 -3 -3 -10 0 -12 12 -8 14 5 14 3 -3 -17 -11 -13 -14 -20 -7 -16 7 5
12 1 12 -10 0 -10 -3 -14 -7 -11 -3 4 -12 2 -19 -4 -8 -7 -14 -6 -20 2 -4 7
-3 9 4 5 6 -3 14 -2 17 4 8 12 -51 70 -71 70 -21 0 -17 -9 9 -20 16 -6 17 -9
5 -9 -9 -1 -20 4 -23 9 -4 6 -10 8 -15 5 -5 -3 -12 0 -16 6 -5 8 -3 9 6 4 9
-5 11 -4 6 4 -4 6 -13 8 -19 4 -19 -12 -56 -10 -61 4 -3 7 1 10 9 7 8 -3 25 3
38 13 l24 19 -32 10 c-27 9 -32 8 -28 -6 3 -10 -2 -16 -16 -16 -15 0 -17 4
-10 17 6 12 4 19 -4 22 -10 4 -13 -7 -13 -39 1 -42 -16 -66 -30 -43 -3 6 -12
8 -20 5 -8 -3 -11 0 -8 9 3 8 9 14 12 13 20 -2 32 3 27 12 -4 6 -9 8 -13 6 -9
-5 -32 20 -25 28 4 3 1 6 -5 6 -16 0 -15 -13 1 -29 10 -11 9 -12 -2 -6 -11 6
-13 4 -8 -11 7 -18 7 -18 -7 -1 -8 11 -12 25 -9 33 5 14 2 15 -36 18 -11 0
-23 5 -28 10 -4 5 -3 6 4 2 6 -3 14 -3 17 2 2 4 -4 8 -14 9 -10 1 -21 -5 -24
-13 -3 -8 -10 -14 -15 -14 -6 0 -7 7 -4 17 4 10 2 14 -5 9 -6 -3 -13 -2 -17 4
-3 5 -11 10 -16 10 -6 0 -3 -8 7 -17 17 -17 17 -18 -5 -21 -12 -2 -29 2 -38
10 -9 7 -14 8 -10 2 4 -7 -4 -11 -21 -12 -22 0 -28 4 -30 23 -1 13 3 27 8 30
6 3 10 11 10 17 0 6 -9 -1 -21 -16 -11 -14 -17 -31 -13 -38 4 -7 -3 -4 -16 7
-13 11 -20 14 -16 8 5 -9 2 -11 -8 -7 -9 3 -16 1 -16 -6 0 -6 -5 -8 -10 -5
-15 9 -12 25 4 25 8 0 18 5 22 11 4 8 0 9 -15 4 -15 -4 -21 -2 -21 8 0 8 -7
20 -16 27 -13 11 -16 10 -20 -8 -4 -12 -11 -19 -20 -15 -14 5 -19 -8 -8 -20
12 -11 46 14 40 29 -3 8 -2 13 3 10 5 -3 8 -18 8 -33 0 -16 -2 -22 -4 -15 -3
6 -9 9 -15 6 -17 -11 -68 -12 -69 -3 -1 5 -3 14 -4 19 -1 6 -3 14 -4 19 0 4
-12 6 -26 4 -22 -5 -61 18 -50 29 3 3 -1 5 -9 5 -9 0 -13 -8 -10 -21 3 -19 2
-19 -13 -3 -16 15 -16 18 0 35 12 13 13 19 5 20 -22 2 -43 7 -54 15 -16 9 -64
5 -64 -6 0 -5 -6 -4 -14 2 -11 10 -17 8 -25 -6 -10 -18 -12 -16 -15 10 -1 6
-10 11 -21 9 -11 -1 -25 6 -33 18 -10 17 -10 20 4 20 8 0 12 5 9 10 -4 6 -11
8 -16 5 -5 -4 -9 -1 -9 6 0 7 -3 9 -6 6 -4 -3 -15 -2 -25 3 -12 7 -20 7 -24 0
-4 -7 -11 -7 -18 -2 -17 13 -44 11 -44 -4 0 -7 5 -10 10 -7 5 3 8 0 5 -8 -7
-20 -34 -17 -30 3 1 9 -3 20 -9 24 -8 4 -9 3 -5 -4 5 -8 2 -10 -8 -6 -9 3 -14
10 -11 14 3 4 -2 10 -10 14 -8 3 -17 1 -20 -4 -4 -6 -12 -10 -18 -9 -9 0 -8 2
1 6 6 2 9 10 6 15 -4 7 -2 8 4 4 7 -4 12 -1 12 9 0 9 -4 13 -10 10 -6 -3 -10
0 -10 9 0 19 -19 25 -54 15 -38 -11 -43 -6 -22 26 9 14 15 25 14 26 -27 7 -39
6 -34 -6 2 -7 -5 -21 -17 -32 -21 -18 -21 -18 -7 1 14 18 13 18 -10 11 -24 -7
-24 -6 -6 8 19 14 33 52 15 41 -5 -3 -9 -12 -9 -20 0 -11 -7 -13 -27 -8 -33 8
-47 25 -30 37 8 6 6 7 -6 3 -23 -7 -57 10 -57 29 0 18 -20 20 -20 3 0 -7 -5
-5 -11 6 -9 14 -8 20 2 27 11 7 11 9 -2 9 -11 0 -16 10 -16 35 0 22 -8 44 -22
59 -14 15 -19 29 -15 41 6 14 4 17 -9 12 -11 -4 -14 -2 -10 9 3 7 1 14 -5 14
-9 0 -9 -20 -2 -40 1 -3 1 -9 0 -15 -9 -45 -10 -59 -1 -45 5 8 7 18 4 23 -3 5
3 7 13 5 9 -1 17 -7 17 -13 -1 -5 4 -17 11 -25 16 -20 15 -42 -4 -47 -9 -3
-11 -1 -5 4 13 9 13 23 1 41 -9 15 -30 11 -32 -6 -1 -7 -2 -16 -3 -21 0 -5 -7
-11 -15 -14 -10 -4 -14 0 -13 12 1 12 6 17 15 13 11 -4 10 1 -3 21 -10 17 -26
27 -41 27 -12 0 -26 5 -30 12 -4 7 -3 8 5 4 6 -4 21 -4 33 0 19 6 19 7 4 16
-9 5 -14 14 -10 19 3 5 2 8 -3 7 -4 -2 -9 1 -10 6 -1 5 -7 13 -15 17 -9 6 -7
9 10 9 12 0 22 5 22 10 0 6 -7 10 -16 10 -12 0 -15 7 -12 24 5 24 -5 28 -29
13 -6 -4 -14 -3 -18 3 -4 6 -10 8 -15 5 -5 -3 -12 0 -16 6 -4 7 -3 9 4 5 6 -3
18 1 27 10 12 13 13 19 4 30 -10 12 -8 13 7 8 18 -5 18 -5 1 6 -9 6 -22 8 -27
5 -6 -3 -10 -1 -10 5 0 6 -5 8 -12 4 -9 -5 -9 -3 1 9 7 9 18 14 24 10 6 -3 7
-1 3 6 -6 9 -11 9 -21 1 -11 -9 -18 -5 -31 15 -19 30 -14 43 9 20 20 -20 26
-19 22 3 -1 10 -9 16 -20 14 -10 -2 -14 1 -10 7 4 7 -1 8 -12 4 -16 -6 -16 -5
-4 10 7 9 10 17 5 17 -4 0 1 7 12 16 10 8 13 13 6 9 -6 -3 -25 3 -41 14 -31
23 -46 27 -36 11 4 -6 -7 -10 -27 -10 -24 0 -29 3 -18 9 8 6 18 7 22 5 4 -3 8
-1 8 4 0 6 -12 13 -27 17 l-28 7 24 12 c19 10 20 14 8 19 -8 3 -14 14 -12 24
2 10 4 20 4 23 1 3 6 -2 11 -10 6 -9 10 -10 10 -3 0 16 -17 26 -25 13 -4 -6
-12 -7 -18 -4 -7 4 -9 4 -5 -1 4 -4 0 -14 -10 -22 -13 -10 -13 -12 -1 -8 12 5
14 -1 11 -31 -3 -24 -7 -32 -13 -23 -4 7 -5 17 -3 21 3 4 0 8 -5 8 -6 0 -11
11 -11 25 0 14 -5 25 -11 25 -7 0 -9 10 -7 25 3 16 1 25 -7 25 -22 0 -27 33
-8 50 10 8 16 14 14 13 -11 -6 -31 30 -31 56 0 23 5 31 18 32 14 0 14 2 -3 8
-16 6 -19 16 -17 44 3 32 1 36 -15 32 -11 -4 -10 -1 4 6 18 9 21 18 17 43 -4
24 -3 27 5 16 9 -13 11 -13 11 3 0 9 -5 17 -11 17 -8 0 -7 6 2 17 10 11 10 14
2 9 -9 -5 -13 1 -13 21 0 21 3 24 10 13 5 -8 12 -11 16 -8 3 4 -9 17 -27 28
-19 12 -25 19 -14 16 19 -5 20 -1 18 77 -1 45 0 76 3 70 3 -7 10 -13 16 -13 6
0 3 9 -8 21 -18 20 -18 21 -1 34 10 7 14 16 8 19 -5 3 -12 0 -14 -6 -3 -7 -5
4 -4 25 0 27 6 41 20 49 16 8 17 12 6 19 -8 5 -16 3 -21 -4 -6 -9 -8 -9 -8 0
0 6 9 18 20 26 13 9 18 20 14 31 -4 10 0 18 10 22 9 3 14 9 11 13 -2 4 2 8 9
8 7 0 13 -7 12 -16 -1 -9 7 -16 17 -16 10 0 22 -7 27 -15 5 -8 10 -10 10 -4 0
6 -9 23 -20 37 -25 32 -25 41 -1 34 12 -3 22 1 25 10 4 9 2 12 -7 7 -8 -5 -7
-2 2 9 11 13 11 17 1 17 -8 0 -10 3 -7 7 4 3 3 11 -1 18 -4 6 1 3 10 -8 10
-10 22 -16 28 -12 5 3 10 2 10 -4 0 -5 -6 -12 -12 -14 -8 -3 -5 -6 6 -6 14 -1
17 4 13 20 -4 14 -2 19 7 16 9 -4 12 3 9 21 -2 15 0 21 3 15 8 -18 27 -16 20
2 -3 8 0 14 6 12 6 -1 13 4 15 11 3 7 -1 10 -9 7 -7 -3 -19 4 -25 15 -11 16
-10 18 3 13 10 -4 17 1 21 15 4 17 9 19 29 12 29 -12 30 -6 3 31 -17 24 -20
37 -6 27 2 -2 12 4 23 12 18 14 18 14 5 -3 -17 -21 -9 -33 10 -14 8 7 22 16
32 20 23 9 22 23 -3 30 -11 3 -20 1 -20 -4 0 -5 7 -9 17 -9 9 0 14 -3 10 -6
-3 -3 -14 -3 -25 0 -22 7 -23 29 -2 49 10 10 11 9 6 -1 -7 -12 9 -12 53 -3 2
1 -2 8 -9 16 -11 13 -10 14 4 9 12 -5 15 -2 10 10 -3 9 -10 13 -15 10 -5 -3
-9 2 -9 12 0 13 3 14 13 5 8 -6 18 -7 22 -3 5 4 5 1 1 -5 -4 -7 -4 -13 1 -14
4 0 18 -2 31 -5 12 -2 22 0 22 5 0 6 -9 8 -21 6 -15 -3 -19 0 -15 10 3 8 2 14
-2 14 -25 -4 -32 1 -20 15 11 12 15 12 29 0 9 -8 19 -11 22 -7 4 3 7 2 7 -4 0
-6 9 -13 20 -16 11 -3 18 -1 14 4 -3 5 1 9 8 9 7 1 2 7 -12 16 -20 12 -21 14
-4 9 16 -4 20 0 21 17 4 78 14 94 46 76 18 -9 19 -7 14 31 -2 22 0 38 5 35 4
-3 6 -10 3 -15 -4 -5 -2 -9 3 -9 11 0 38 69 34 88 -2 10 2 13 13 9 10 -5 15
-2 13 8 -2 7 2 15 7 16 6 1 16 9 24 18 7 9 6 3 -4 -12 -9 -16 -14 -31 -11 -34
3 -3 14 10 25 28 23 38 27 35 10 -8 -14 -37 -14 -36 18 -40 17 -1 22 1 13 5
-21 10 -25 36 -5 28 9 -3 13 -2 10 3 -3 5 -1 12 5 16 6 4 8 10 5 15 -3 5 -1
12 5 15 6 4 10 3 9 -2 -4 -24 1 -37 12 -26 8 8 8 17 0 31 -12 22 -3 37 13 22
7 -5 18 -5 26 0 12 7 12 11 -1 27 -13 17 -13 17 5 3 18 -14 19 -13 13 3 -4 11
-1 20 8 23 8 4 13 10 10 14 -3 4 9 10 25 14 28 5 30 8 27 46 -2 23 0 43 5 46
7 5 12 -10 9 -29 -1 -5 3 -24 8 -43 5 -19 6 -34 1 -34 -5 0 -8 -6 -6 -12 3 -7
7 -25 10 -40 4 -16 11 -28 17 -28 8 0 8 4 1 13 -15 18 -11 56 5 50 7 -3 13 0
13 6 0 6 8 11 18 11 14 0 15 2 2 10 -13 8 -12 10 4 10 12 0 16 5 12 15 -6 17
9 21 19 5 11 -18 22 -2 21 33 -1 25 3 34 14 33 8 -1 14 5 12 12 -1 8 2 11 8 7
6 -4 9 -13 6 -21 -3 -8 0 -11 10 -7 7 3 14 14 14 25 0 11 4 16 11 12 6 -3 15
0 21 7 7 11 8 11 6 -3 -2 -9 0 -16 3 -15 4 1 16 -9 27 -23 l20 -25 -5 26 c-3
15 0 30 7 34 8 5 11 0 8 -15 -4 -32 20 -37 28 -6 3 14 10 26 14 26 4 0 11 7
14 16 3 8 2 12 -4 9 -6 -3 -10 -1 -10 4 0 18 22 12 43 -11 l19 -23 -7 25 c-7
21 -6 23 6 13 12 -10 17 -6 28 18 7 17 10 33 7 36 -3 4 -6 1 -6 -5 0 -7 -7 -9
-17 -5 -15 6 -14 7 3 13 24 9 34 4 34 -20 0 -10 4 -21 9 -25 6 -3 8 4 6 16 -2
12 2 28 10 35 12 13 15 12 23 -3 5 -10 7 -23 5 -30 -2 -6 1 -15 8 -19 8 -4 9
-3 5 4 -12 21 33 7 48 -14 14 -18 15 -17 13 16 -1 19 -6 40 -12 46 -11 13 -35
7 -35 -8 0 -5 4 -7 9 -3 5 3 12 1 15 -4 8 -13 -21 -8 -35 6 -8 8 -5 13 10 18
12 3 21 11 21 18 0 6 7 2 15 -9 9 -12 14 -14 15 -5 0 7 6 11 14 8 10 -4 13 1
11 19 -1 15 3 24 11 24 8 0 14 -3 14 -7 0 -5 11 -9 25 -9 17 -1 25 3 25 15 0
12 -2 13 -9 3 -6 -11 -11 -10 -25 3 -19 19 -22 32 -3 17 8 -7 18 -7 27 -2 13
8 13 10 1 10 -8 0 -12 3 -9 6 4 3 16 0 28 -6 13 -7 19 -15 14 -19 -14 -10 -14
-28 1 -28 7 0 11 7 7 15 -4 11 -1 13 7 7 10 -6 11 -3 2 14 -7 11 -9 21 -6 21
3 0 8 0 13 0 8 0 9 -5 11 -48 1 -23 5 -27 26 -27 13 1 33 9 43 18 17 16 18 15
16 -12 -1 -23 2 -28 13 -24 8 3 11 9 6 12 -4 3 -8 20 -8 37 0 25 3 30 18 26
10 -3 23 -14 28 -26 9 -20 9 -20 5 2 -2 12 0 22 6 22 5 0 6 5 3 10 -4 6 -11 8
-16 5 -15 -10 -10 2 8 16 14 12 15 12 9 0 -7 -10 -3 -12 15 -7 13 3 18 3 12 0
-7 -3 -13 -10 -13 -16 0 -7 5 -6 14 1 7 6 20 9 28 6 9 -4 15 0 15 9 0 9 -6 12
-16 8 -12 -4 -11 0 4 18 l20 23 -20 -11 c-18 -9 -21 -7 -22 9 -1 10 4 19 12
19 25 0 37 -35 38 -102 1 -21 5 -38 10 -38 4 0 5 5 2 10 -9 14 8 12 25 -2 8
-7 7 -4 -3 8 -13 16 -15 27 -8 45 9 21 10 22 11 4 1 -18 1 -19 11 -2 5 9 15
17 21 17 6 0 5 -7 -3 -17 -13 -16 -12 -17 4 -4 21 17 21 25 1 45 -8 9 -11 16
-5 16 6 0 11 7 11 15 0 9 6 12 17 8 11 -4 14 -3 9 5 -4 7 -1 12 9 12 9 0 14
-4 11 -8 -2 -4 5 -9 17 -9 17 -2 19 0 7 7 -13 8 -13 10 1 10 9 0 19 -3 23 -7
11 -11 36 -12 36 -1 0 6 -7 7 -16 4 -11 -4 -14 -1 -12 12 2 9 11 15 19 13 8
-2 20 -4 27 -4 7 0 11 -6 8 -14 -3 -7 0 -13 6 -13 7 0 7 -4 -1 -14 -9 -11 -6
-12 15 -8 20 4 25 2 19 -8 -6 -9 -4 -11 4 -5 9 5 6 14 -11 33 -13 15 -16 22
-8 16 31 -22 48 -24 43 -3 -3 11 0 19 6 19 7 0 9 -4 6 -10 -3 -5 -2 -10 4 -10
16 0 22 18 7 23 -9 4 -12 15 -9 31 5 24 7 25 18 10 11 -16 14 -15 33 4 25 25
34 28 26 9 -3 -8 5 -18 18 -25 16 -7 18 -11 7 -11 -22 -1 -45 -28 -24 -28 8 0
12 3 10 7 -2 4 9 7 26 8 16 0 27 -2 25 -6 -2 -4 12 -8 32 -10 38 -2 40 6 3 13
-12 2 -28 11 -37 19 -13 14 -11 15 25 11 23 -2 44 -6 49 -9 4 -2 8 4 8 14 0
10 -4 16 -8 14 -4 -3 -8 2 -8 10 0 12 7 14 29 10 16 -3 39 -1 52 6 23 11 23
10 5 -4 -11 -9 -23 -16 -26 -16 -4 0 -7 -7 -7 -16 0 -14 2 -14 11 -3 6 8 28
22 49 31 20 10 36 23 35 30 -2 8 5 12 15 10 10 -2 24 1 31 7 9 7 12 4 13 -12
2 -17 0 -19 -7 -7 -5 8 -10 10 -10 4 0 -6 10 -19 23 -30 12 -10 19 -15 15 -10
-4 5 -2 16 5 24 7 10 8 13 1 9 -8 -4 -13 4 -16 22 -2 17 -2 30 1 29 20 -2 22
5 5 23 -19 22 -19 22 1 11 11 -6 28 -13 38 -16 10 -3 16 -10 13 -15 -7 -10 19
-23 54 -27 14 -1 17 0 7 3 -16 4 -15 6 5 23 13 10 31 16 40 15 10 -2 18 1 18
7 0 5 -7 8 -15 4 -8 -3 -15 -4 -15 -2 0 3 -3 11 -6 20 -4 10 0 14 14 13 12 0
19 -4 17 -7 -2 -4 2 -7 9 -7 9 0 13 9 11 23 -1 13 1 23 4 22 3 0 11 1 16 2 6
1 17 3 25 4 8 0 14 7 12 14 -1 6 2 12 7 12 11 0 24 -31 16 -38 -3 -3 -5 1 -6
9 0 8 -5 3 -10 -10 -9 -23 -10 -24 -24 -5 -16 21 -20 8 -6 -15 8 -12 12 -12
25 -2 8 7 20 10 26 6 6 -4 10 -3 9 2 -4 22 2 32 16 27 8 -4 15 -1 15 5 0 6 -4
11 -10 11 -5 0 -10 6 -10 13 0 7 16 12 45 13 25 1 45 -2 45 -6 0 -16 29 -4 50
20 l21 25 -6 -25 c-5 -21 -4 -22 5 -8 7 12 8 24 1 36 -6 11 -6 24 0 33 6 10 9
10 9 2 0 -19 30 -16 37 3 5 15 7 14 16 -1 8 -14 11 -15 18 -4 5 8 9 9 9 3 0
-6 -7 -17 -15 -24 -8 -7 -15 -18 -15 -24 0 -6 5 -4 10 4 5 8 15 15 22 15 7 1
12 7 10 14 -1 7 2 10 8 6 5 -3 19 -1 31 6 12 6 19 7 15 1 -3 -5 10 -2 29 6 33
15 50 52 23 52 -6 0 -8 3 -5 6 4 4 14 1 24 -7 12 -10 15 -10 9 -1 -4 7 -2 20
5 28 9 12 9 14 -2 11 -8 -2 -11 -2 -6 0 4 3 5 9 1 14 -3 5 -1 9 5 9 5 0 13 -9
16 -20 3 -11 10 -20 15 -20 5 0 7 7 4 15 -5 11 -1 14 12 9 16 -5 17 -4 4 6
-13 10 -13 12 -1 17 10 4 8 9 -10 19 -24 13 -24 13 8 11 32 -2 36 -8 32 -54
-1 -18 47 -19 62 -2 12 14 19 15 27 7 9 -9 12 -8 12 6 0 9 5 14 10 11 7 -4 9
2 5 18 -4 14 -2 28 4 31 7 5 9 0 5 -11 -4 -11 4 -6 21 12 14 17 23 24 19 16
-5 -10 -3 -12 5 -7 7 4 11 17 9 28 -2 12 3 23 11 26 10 3 11 0 5 -9 -6 -11 -5
-12 7 -2 9 7 20 8 29 3 8 -5 18 -6 24 -3 5 3 6 1 2 -5 -4 -7 -14 -12 -22 -12
-12 0 -12 -2 -2 -14 7 -7 19 -11 26 -9 8 4 10 0 6 -11 -3 -9 -10 -16 -15 -16
-5 0 -9 -5 -9 -12 0 -6 11 -1 26 13 22 21 24 21 19 4 -6 -20 -6 -20 7 -1 7 11
23 30 36 42 22 22 23 22 2 17 -14 -4 -20 -1 -18 8 5 21 20 29 39 18 29 -15 33
-10 13 14 -10 12 -12 16 -4 10 8 -7 21 -13 30 -13 13 0 15 8 12 38 -3 20 -1
34 3 30 4 -4 8 -17 9 -29 0 -12 8 -24 16 -26 13 -4 13 -3 0 7 -11 9 -12 13 -2
17 6 2 9 10 6 16 -5 8 -2 8 7 0 18 -18 32 -16 25 2 -3 8 -1 15 3 15 5 0 10
-15 10 -32 2 -51 7 -77 14 -83 4 -3 5 -2 2 1 -2 4 0 15 6 26 8 15 13 17 25 7
13 -10 18 -6 15 14 0 4 4 7 10 7 7 0 9 10 5 24 -7 27 11 46 20 22 5 -12 10
-13 24 -4 10 7 16 16 13 22 -4 5 1 7 11 3 10 -4 15 -3 11 3 -3 6 -1 10 5 10 6
0 9 8 6 18 -4 11 2 22 15 30 12 8 18 9 14 3 -3 -6 1 -11 9 -11 9 0 16 5 16 10
0 6 4 10 8 10 9 0 12 -17 12 -59 0 -30 9 -43 23 -34 7 4 17 8 22 9 6 0 15 2
21 2 6 1 11 9 12 17 1 8 3 21 4 28 1 15 28 19 28 5 0 -4 7 -8 16 -8 8 0 12 4
9 10 -4 6 1 7 11 3 10 -4 22 0 29 11 12 15 13 15 18 -4 3 -11 11 -20 19 -20
10 0 9 3 -2 11 -11 8 -12 12 -2 16 6 2 9 10 6 15 -4 7 -2 8 5 4 6 -4 17 -22
25 -39 9 -22 21 -33 35 -34 18 -2 20 1 12 11 -9 10 -8 15 4 20 11 4 14 2 9 -6
-4 -7 -3 -8 4 -4 7 4 12 16 12 26 0 10 5 22 12 26 7 5 9 2 5 -8 -4 -13 2 -16
29 -16 22 0 34 5 34 14 0 18 9 18 32 -3 10 -9 18 -11 18 -5 0 6 -6 13 -12 15
-8 3 -5 6 6 6 11 1 16 6 13 15 -5 13 0 26 11 26 3 0 2 -3 -1 -6z m827 -70 c3
-8 2 -12 -4 -9 -6 3 -10 10 -10 16 0 14 7 11 14 -7z m-64 -54 c0 -5 -2 -10 -4
-10 -3 0 -8 5 -11 10 -3 6 -1 10 4 10 6 0 11 -4 11 -10z m210 -10 c0 -5 -4
-10 -9 -10 -6 0 -13 5 -16 10 -3 6 1 10 9 10 9 0 16 -4 16 -10z m140 -34 c0
-3 -4 -8 -10 -11 -5 -3 -10 -1 -10 4 0 6 5 11 10 11 6 0 10 -2 10 -4z m-2068
-38 c-7 -7 -12 -8 -12 -2 0 14 12 26 19 19 2 -3 -1 -11 -7 -17z m2198 -34 c0
-3 -7 -1 -15 6 -8 7 -15 17 -15 22 0 5 7 3 15 -6 8 -8 15 -18 15 -22z m-83 9
c-4 -3 1 -12 11 -20 15 -13 15 -13 -6 -3 -19 9 -23 30 -5 30 4 0 3 -3 0 -7z
m-2037 -17 c0 -11 -19 -15 -25 -6 -3 5 1 10 9 10 9 0 16 -2 16 -4z m-205 -25
c-3 -6 -15 -11 -26 -11 -11 0 -18 4 -14 10 3 5 12 7 20 3 8 -3 15 1 15 8 0 7
3 10 6 6 3 -3 3 -10 -1 -16z m2480 -9 c-3 -3 -11 0 -18 7 -9 10 -8 11 6 5 10
-3 15 -9 12 -12z m-2490 -31 c-2 -9 -4 -18 -4 -20 -1 -3 -8 4 -16 15 -11 14
-14 15 -9 3 6 -19 -11 -35 -21 -19 -3 5 -2 10 4 10 6 0 8 6 5 14 -3 9 3 14 19
14 18 0 24 -5 22 -17z m2658 -5 c4 -10 1 -13 -8 -9 -8 3 -12 9 -9 14 7 12 11
11 17 -5z m-13 -40 c0 -2 -8 -10 -17 -17 -16 -13 -17 -12 -4 4 13 16 21 21 21
13z m-2870 -52 c0 -8 -19 -13 -24 -6 -3 5 1 9 9 9 8 0 15 -2 15 -3z m-246 -63
c3 -4 -3 -16 -13 -25 -15 -14 -21 -15 -27 -4 -4 7 -4 10 1 6 10 -10 37 11 29
23 -3 5 -3 9 0 9 3 0 7 -4 10 -9z m3446 -1 c0 -5 -2 -10 -4 -10 -3 0 -8 5 -11
10 -3 6 -1 10 4 10 6 0 11 -4 11 -10z m-3430 -50 c0 -5 -7 -7 -15 -4 -8 4 -12
10 -9 15 6 11 24 2 24 -11z m3730 -44 c0 -3 -4 -8 -10 -11 -5 -3 -10 -1 -10 4
0 6 5 11 10 11 6 0 10 -2 10 -4z m0 -36 c0 -5 -7 -7 -15 -4 -8 4 -15 8 -15 10
0 2 7 4 15 4 8 0 15 -4 15 -10z m67 4 c-3 -3 -12 -4 -19 -1 -8 3 -5 6 6 6 11
1 17 -2 13 -5z m-4152 -42 c-1 -1 -10 0 -19 4 -13 5 -14 9 -4 21 10 13 13 13
19 -4 3 -10 5 -19 4 -21z m63 11 c-2 -10 -14 -24 -27 -30 -30 -16 -32 -16 -25
2 4 8 10 12 15 9 5 -3 9 0 9 5 0 6 -6 11 -12 12 -7 1 -2 5 12 9 14 4 26 8 28
9 2 1 2 -7 0 -16z m4200 -5 c19 -19 14 -29 -8 -16 -20 13 -27 28 -12 28 4 0
13 -5 20 -12z m39 6 c-3 -3 -12 -4 -19 -1 -8 3 -5 6 6 6 11 1 17 -2 13 -5z
m-4402 -52 c-3 -3 -11 0 -18 7 -9 10 -8 11 6 5 10 -3 15 -9 12 -12z m-55 -27
c0 -11 -5 -12 -24 -5 -13 5 -27 6 -30 2 -9 -9 -46 -10 -51 -1 -3 4 6 6 20 4
14 -1 25 2 25 6 0 5 14 9 30 9 20 0 30 -5 30 -15z m-140 -15 c0 -5 -5 -10 -11
-10 -5 0 -7 5 -4 10 3 6 8 10 11 10 2 0 4 -4 4 -10z m4 -38 c2 -4 -5 -9 -17
-9 -17 -2 -19 0 -7 7 18 12 18 12 24 2z m4788 -16 c3 -16 0 -27 -10 -31 -10
-3 -12 0 -8 10 3 8 0 15 -6 15 -7 0 -6 5 2 15 16 20 17 19 22 -9z m-5128 -2
c3 -8 2 -12 -4 -9 -6 3 -10 10 -10 16 0 14 7 11 14 -7z m62 -3 c0 -12 -6 -17
-18 -13 -13 3 -14 7 -5 18 17 18 23 17 23 -5z m-112 -24 c-3 -9 -11 -17 -16
-17 -6 0 -5 6 2 15 6 8 8 20 4 27 -5 10 -4 10 5 2 6 -6 9 -18 5 -27z m33 -13
c-3 -3 -12 -4 -19 -1 -8 3 -5 6 6 6 11 1 17 -2 13 -5z m5457 -55 c3 -3 -4 -5
-14 -6 -11 -1 -20 2 -20 7 0 8 25 8 34 -1z m176 -80 c0 -6 -4 -7 -10 -4 -5 3
-10 11 -10 16 0 6 5 7 10 4 6 -3 10 -11 10 -16z m-6170 7 c0 -3 -4 -8 -10 -11
-5 -3 -10 -1 -10 4 0 6 5 11 10 11 6 0 10 -2 10 -4z m196 -29 c-8 -12 -12 -13
-15 -5 -2 7 -9 16 -14 20 -6 3 1 5 15 5 21 -2 23 -5 14 -20z m-436 -47 c6 -11
8 -20 6 -20 -3 0 -10 9 -16 20 -6 11 -8 20 -6 20 3 0 10 -9 16 -20z m6505 -59
c-6 -5 -25 10 -25 20 0 5 6 4 14 -3 8 -7 12 -15 11 -17z m220 -31 c13 -15 15
-24 8 -31 -8 -8 -13 -4 -18 12 -4 13 -13 27 -19 31 -8 6 -8 8 0 8 6 0 19 -9
29 -20z m30 1 c-3 -5 2 -17 11 -25 14 -15 14 -16 -4 -16 -13 0 -18 6 -16 23 3
27 3 27 10 27 3 0 3 -4 -1 -9z m-7002 -58 c-5 -12 -3 -14 8 -8 11 6 12 5 2 -5
-7 -8 -16 -11 -19 -7 -7 6 2 37 10 37 3 0 2 -7 -1 -17z m-128 -24 c-4 -5 -13
-9 -21 -9 -12 0 -12 2 -2 14 14 15 32 11 23 -5z m7295 -13 c0 -2 -7 -7 -16
-10 -8 -3 -12 -2 -9 4 6 10 25 14 25 6z m56 -51 c-3 -23 -12 -26 -13 -5 -1 11
2 20 7 20 4 0 7 -7 6 -15z m38 -33 c3 -5 -1 -9 -9 -9 -8 0 -12 4 -9 9 3 4 7 8
9 8 2 0 6 -4 9 -8z m157 -105 c-10 -9 -11 -8 -5 6 3 10 9 15 12 12 3 -3 0 -11
-7 -18z m-7831 -73 c0 -8 -5 -12 -10 -9 -6 4 -8 11 -5 16 9 14 15 11 15 -7z
m-50 -59 c0 -5 -5 -3 -10 5 -5 8 -10 20 -10 25 0 6 5 3 10 -5 5 -8 10 -19 10
-25z m8024 -22 c4 -10 12 -10 33 -2 18 6 24 7 18 0 -20 -19 -64 -21 -74 -2 -7
13 -6 18 4 18 8 0 16 -6 19 -14z m103 -39 c-3 -3 -12 -4 -19 -1 -8 3 -5 6 6 6
11 1 17 -2 13 -5z m-8242 -33 c-3 -6 -11 -11 -16 -11 -5 0 -4 6 3 14 14 16 24
13 13 -3z m8275 -43 c0 -19 -16 -5 -17 14 -2 18 0 20 7 8 5 -8 10 -18 10 -22z
m189 -165 c-11 -12 -2 -18 24 -14 11 2 8 -9 -8 -25 -13 -14 -16 -12 -25 11
-13 35 -13 42 5 42 11 0 12 -4 4 -14z m56 -3 c8 -13 -5 -13 -25 0 -13 8 -13
10 2 10 9 0 20 -4 23 -10z m35 -79 c0 -6 -4 -12 -8 -15 -5 -3 -9 1 -9 9 0 8 4
15 9 15 4 0 8 -4 8 -9z m-8786 -76 c-4 -8 -10 -12 -15 -9 -14 8 -10 24 6 24 9
0 12 -6 9 -15z m-84 -56 c0 -9 -31 -21 -38 -14 -3 3 0 5 7 5 7 0 10 4 7 8 -3
5 1 9 9 9 8 0 15 -4 15 -8z m8928 -64 c-3 -3 -9 2 -12 12 -6 14 -5 15 5 6 7
-7 10 -15 7 -18z m42 15 c0 -5 -2 -10 -4 -10 -3 0 -8 5 -11 10 -3 6 -1 10 4
10 6 0 11 -4 11 -10z m120 -14 c0 -3 -4 -8 -10 -11 -5 -3 -10 -1 -10 4 0 6 5
11 10 11 6 0 10 -2 10 -4z m-25 -45 c-6 -5 -25 10 -25 20 0 5 6 4 14 -3 8 -7
12 -15 11 -17z m-35 -1 c0 -5 -2 -10 -4 -10 -3 0 -8 5 -11 10 -3 6 -1 10 4 10
6 0 11 -4 11 -10z m80 -70 c0 -11 -2 -20 -4 -20 -2 0 -6 9 -9 20 -3 11 -1 20
4 20 5 0 9 -9 9 -20z m12 -48 c-7 -2 -12 -9 -12 -16 0 -7 -6 -13 -14 -13 -12
0 -11 5 2 23 9 12 21 19 27 16 5 -3 4 -7 -3 -10z m-9212 -286 c0 -3 -4 -8 -10
-11 -5 -3 -10 -1 -10 4 0 6 5 11 10 11 6 0 10 -2 10 -4z m9201 -132 c-5 -16
-10 -21 -10 -12 -1 18 10 51 15 45 2 -1 -1 -16 -5 -33z m0 -67 c-10 -9 -11 -8
-5 6 3 10 9 15 12 12 3 -3 0 -11 -7 -18z m-18 -64 c-6 -15 -19 -17 -27 -4 -7
11 0 18 18 18 8 0 12 -6 9 -14z m18 -16 c-10 -9 -11 -8 -5 6 3 10 9 15 12 12
3 -3 0 -11 -7 -18z m-17 -23 c3 -8 2 -12 -4 -9 -6 3 -10 10 -10 16 0 14 7 11
14 -7z m-15 -57 c-9 -7 -14 -18 -12 -24 3 -7 0 -13 -7 -13 -6 0 -8 5 -5 10 3
6 0 10 -7 11 -7 0 -3 5 10 11 12 6 22 16 22 21 0 6 3 7 7 3 5 -4 1 -13 -8 -19z
m-9108 -94 c13 -16 12 -17 -3 -4 -10 7 -18 15 -18 17 0 8 8 3 21 -13z m39 -28
c0 -2 -9 -9 -20 -15 -16 -9 -18 -8 -14 5 5 13 34 22 34 10z m68 -29 c-7 -8
-16 -12 -21 -9 -11 7 2 23 19 23 12 0 12 -2 2 -14z m33 -33 c-8 -15 -10 -15
-11 -2 0 17 10 32 18 25 2 -3 -1 -13 -7 -23z m-37 -9 c3 -8 2 -12 -4 -9 -6 3
-10 10 -10 16 0 14 7 11 14 -7z m71 -103 c-6 -5 -25 10 -25 20 0 5 6 4 14 -3
8 -7 12 -15 11 -17z m92 -123 c-15 -9 -19 -4 -11 16 5 14 9 15 15 5 5 -8 3
-17 -4 -21z m38 -68 c3 -6 -1 -7 -9 -4 -18 7 -21 14 -7 14 6 0 13 -4 16 -10z
m18 -55 c-3 -9 -8 -14 -10 -11 -3 3 -2 9 2 15 9 16 15 13 8 -4z m8432 -23 c-3
-3 -11 0 -18 7 -9 10 -8 11 6 5 10 -3 15 -9 12 -12z m-219 -162 c0 -12 -4 -16
-9 -11 -5 5 -6 14 -3 20 10 15 12 14 12 -9z m-186 -94 c0 -3 -4 -8 -10 -11 -5
-3 -10 -1 -10 4 0 6 5 11 10 11 6 0 10 -2 10 -4z m-7430 -52 c0 -2 -9 0 -20 6
-11 6 -20 13 -20 16 0 2 9 0 20 -6 11 -6 20 -13 20 -16z m4 -30 c3 -8 2 -12
-4 -9 -6 3 -10 10 -10 16 0 14 7 11 14 -7z m194 -45 c3 -11 2 -11 -7 1 -9 13
-11 12 -11 -5 0 -16 -2 -17 -9 -5 -6 8 -7 18 -4 23 7 12 26 3 31 -14z m-68
-30 c0 -5 -4 -9 -8 -9 -5 0 -9 7 -9 15 0 8 4 12 9 9 4 -3 8 -9 8 -15z m475
-127 c-3 -3 -11 0 -18 7 -9 10 -8 11 6 5 10 -3 15 -9 12 -12z m105 -7 c0 -8
-4 -15 -10 -15 -5 0 -7 7 -4 15 4 8 8 15 10 15 2 0 4 -7 4 -15z m5996 -4 c-4
-5 -15 -9 -26 -8 -10 1 -16 5 -13 10 3 4 11 6 19 3 8 -3 14 0 14 6 0 6 3 9 6
5 3 -3 3 -10 0 -16z m-6156 5 c0 -3 -4 -8 -10 -11 -5 -3 -10 -1 -10 4 0 6 5
11 10 11 6 0 10 -2 10 -4z m395 -5 c3 -5 1 -12 -5 -16 -5 -3 -10 1 -10 9 0 18
6 21 15 7z m5711 -21 c9 0 12 -5 9 -10 -4 -6 -10 -8 -15 -5 -4 3 -11 -1 -13
-7 -3 -7 -5 1 -5 17 0 17 2 24 5 18 2 -7 11 -13 19 -13z m-5604 -75 c-4 -26
-22 -35 -22 -12 0 10 18 37 26 37 1 0 -1 -11 -4 -25z m5403 -23 c-3 -3 -11 0
-18 7 -9 10 -8 11 6 5 10 -3 15 -9 12 -12z m-215 -2 c0 -5 -5 -10 -11 -10 -5
0 -7 5 -4 10 3 6 8 10 11 10 2 0 4 -4 4 -10z m-405 -70 c3 -5 2 -10 -4 -10 -5
0 -13 5 -16 10 -3 6 -2 10 4 10 5 0 13 -4 16 -10z m145 0 c-8 -5 -19 -10 -25
-10 -5 0 -3 5 5 10 8 5 20 10 25 10 6 0 3 -5 -5 -10z m-435 -20 c3 -5 1 -10
-4 -10 -6 0 -11 5 -11 10 0 6 2 10 4 10 3 0 8 -4 11 -10z m-450 -20 c3 -5 1
-10 -4 -10 -6 0 -11 5 -11 10 0 6 2 10 4 10 3 0 8 -4 11 -10z m-3098 -22 c-3
-8 -6 -5 -6 6 -1 11 2 17 5 13 3 -3 4 -12 1 -19z m228 12 c-3 -5 -12 -10 -18
-10 -7 0 -6 4 3 10 19 12 23 12 15 0z m2975 -10 c0 -5 -5 -12 -12 -16 -7 -4
-8 -3 -4 4 4 7 2 12 -3 12 -6 0 -11 4 -11 10 0 5 7 7 15 4 8 -4 15 -10 15 -14z
m-3013 -15 c0 -8 -4 -12 -9 -9 -4 3 -8 9 -8 15 0 5 4 9 8 9 5 0 9 -7 9 -15z
m2910 9 c-3 -3 -12 -4 -19 -1 -8 3 -5 6 6 6 11 1 17 -2 13 -5z m-2997 -14 c0
-5 -5 -10 -11 -10 -5 0 -7 5 -4 10 3 6 8 10 11 10 2 0 4 -4 4 -10z m2924 -5
c-4 -8 -7 -15 -9 -15 -2 0 -5 7 -9 15 -3 9 0 15 9 15 9 0 12 -6 9 -15z m-39
-5 c8 -13 -5 -13 -25 0 -13 8 -13 10 2 10 9 0 20 -4 23 -10z m75 6 c0 -2 -7
-7 -16 -10 -8 -3 -12 -2 -9 4 6 10 25 14 25 6z m104 -4 c3 -5 -1 -9 -9 -9 -8
0 -12 4 -9 9 3 4 7 8 9 8 2 0 6 -4 9 -8z m-414 -12 c0 -5 -4 -10 -10 -10 -5 0
-10 5 -10 10 0 6 5 10 10 10 6 0 10 -4 10 -10z m-2293 -6 c-3 -3 -12 -4 -19
-1 -8 3 -5 6 6 6 11 1 17 -2 13 -5z m2138 -4 c3 -6 -1 -7 -9 -4 -18 7 -21 14
-7 14 6 0 13 -4 16 -10z m-977 -19 c-6 -10 -18 -17 -26 -13 -11 4 -8 8 9 18
31 17 31 17 17 -5z m553 -14 c-13 -13 -26 -3 -16 12 3 6 11 8 17 5 6 -4 6 -10
-1 -17z m120 0 c-10 -9 -11 -8 -5 6 3 10 9 15 12 12 3 -3 0 -11 -7 -18z m-521
9 c0 -3 -4 -8 -10 -11 -5 -3 -10 -1 -10 4 0 6 5 11 10 11 6 0 10 -2 10 -4z
m760 -6 c3 -2 9 -2 13 -1 5 1 6 -3 2 -9 -3 -6 -12 -7 -18 -3 -7 4 -18 8 -25 9
-8 2 -17 5 -20 8 -5 5 32 2 48 -4z m-2180 -15 c11 -13 10 -14 -4 -9 -9 3 -16
10 -16 15 0 13 6 11 20 -6z m258 -16 c-7 -4 -16 -3 -20 4 -11 18 2 29 18 16
12 -10 12 -14 2 -20z m1802 3 c0 -15 -2 -15 -10 -2 -13 20 -13 33 0 25 6 -3
10 -14 10 -23z m-2020 8 c0 -5 -2 -10 -4 -10 -3 0 -8 5 -11 10 -3 6 -1 10 4
10 6 0 11 -4 11 -10z m630 6 c0 -11 -19 -15 -25 -6 -3 5 1 10 9 10 9 0 16 -2
16 -4z m151 -13 c13 -16 12 -17 -3 -4 -10 7 -18 15 -18 17 0 8 8 3 21 -13z
m844 -3 c3 -5 1 -10 -4 -10 -6 0 -11 5 -11 10 0 6 2 10 4 10 3 0 8 -4 11 -10z"/>
<path d="M7714 8094 c1 -8 4 -15 7 -16 2 -2 3 -1 2 1 -2 2 2 9 7 16 7 8 5 12
-4 12 -8 0 -13 -6 -12 -13z"/>
<path d="M6975 8090 c-3 -5 -1 -10 4 -10 6 0 11 5 11 10 0 6 -2 10 -4 10 -3 0
-8 -4 -11 -10z"/>
<path d="M7000 8086 c0 -2 7 -7 16 -10 8 -3 12 -2 9 4 -6 10 -25 14 -25 6z"/>
<path d="M8160 8080 c-13 -8 -12 -10 3 -10 9 0 17 5 17 10 0 12 -1 12 -20 0z"/>
<path d="M7131 8064 c0 -11 3 -14 6 -6 3 7 2 16 -1 19 -3 4 -6 -2 -5 -13z"/>
<path d="M7736 8063 c-6 -14 -5 -15 5 -6 7 7 10 15 7 18 -3 3 -9 -2 -12 -12z"/>
<path d="M8345 8030 c3 -5 12 -7 20 -3 21 7 19 13 -6 13 -11 0 -18 -4 -14 -10z"/>
<path d="M7073 8015 c0 -8 4 -12 9 -9 5 3 6 10 3 15 -9 13 -12 11 -12 -6z"/>
<path d="M8873 7845 c0 -8 3 -13 5 -10 3 3 10 -2 16 -11 10 -13 12 -13 12 5 0
11 -2 18 -5 16 -2 -3 -9 0 -16 5 -8 7 -12 5 -12 -5z"/>
<path d="M8806 7833 c-6 -14 -5 -15 5 -6 7 7 10 15 7 18 -3 3 -9 -2 -12 -12z"/>
<path d="M8836 7838 c3 -5 10 -6 15 -3 13 9 11 12 -6 12 -8 0 -12 -4 -9 -9z"/>
<path d="M6324 7779 c-10 -17 9 -28 31 -18 18 9 18 9 -3 5 -17 -3 -22 -1 -18
10 6 17 0 19 -10 3z"/>
<path d="M9070 7770 c0 -5 5 -10 11 -10 5 0 7 5 4 10 -3 6 -8 10 -11 10 -2 0
-4 -4 -4 -10z"/>
<path d="M8999 7758 c-7 -23 -4 -35 7 -35 9 0 11 4 4 12 -5 7 -7 15 -3 18 3 4
3 7 0 7 -4 0 -7 -1 -8 -2z"/>
<path d="M9060 7746 c0 -2 9 -6 20 -9 11 -3 18 -1 14 4 -5 9 -34 13 -34 5z"/>
<path d="M6037 7696 c-11 -8 -14 -17 -8 -20 5 -4 15 3 21 14 13 23 11 24 -13
6z"/>
<path d="M6121 7691 c-7 -5 -12 -14 -10 -20 2 -6 10 -2 17 9 14 22 13 23 -7
11z"/>
<path d="M9120 7686 c0 -2 7 -9 15 -16 13 -11 14 -10 9 4 -5 14 -24 23 -24 12z"/>
<path d="M5900 7618 c0 -9 -6 -19 -12 -21 -7 -3 -3 -6 10 -6 24 -1 27 6 12 29
-8 13 -10 13 -10 -2z"/>
<path d="M9225 7620 c3 -5 8 -10 11 -10 2 0 4 5 4 10 0 6 -5 10 -11 10 -5 0
-7 -4 -4 -10z"/>
<path d="M9495 7611 c6 -18 4 -22 -6 -15 -12 7 -12 5 0 -9 18 -23 34 -11 20
16 -17 32 -23 35 -14 8z"/>
<path d="M9657 7529 c7 -7 15 -10 18 -7 3 3 -2 9 -12 12 -14 6 -15 5 -6 -5z"/>
<path d="M9894 7438 c-4 -7 -3 -8 5 -4 6 4 14 1 17 -7 3 -10 13 -13 27 -9 18
5 20 3 10 -9 -10 -12 -8 -15 10 -16 12 0 17 1 11 3 -7 3 -10 13 -7 23 5 21
-12 37 -22 21 -4 -7 -12 -7 -25 0 -13 7 -21 7 -26 -2z"/>
<path d="M5450 7410 c0 -5 7 -6 17 -3 11 4 14 3 9 -5 -4 -7 -1 -12 9 -12 9 0
14 4 11 9 -4 5 0 11 6 14 7 2 -2 4 -19 5 -18 0 -33 -3 -33 -8z"/>
<path d="M5425 7390 c3 -5 8 -10 11 -10 2 0 4 5 4 10 0 6 -5 10 -11 10 -5 0
-7 -4 -4 -10z"/>
<path d="M10199 7338 c0 -2 -2 -11 -4 -21 -3 -15 -1 -16 11 -6 16 13 19 29 4
29 -5 0 -10 -1 -11 -2z"/>
<path d="M10106 7321 c-4 -5 3 -7 14 -4 23 6 26 13 6 13 -8 0 -17 -4 -20 -9z"/>
<path d="M5051 7283 c-1 -6 -4 -20 -7 -30 -5 -17 -5 -17 6 0 6 10 9 23 6 30
-3 9 -5 9 -5 0z"/>
<path d="M4892 7268 c2 -6 10 -13 16 -14 7 -1 8 0 2 3 -5 2 -8 9 -4 14 3 5 0
9 -6 9 -7 0 -10 -5 -8 -12z"/>
<path d="M7107 7213 l122 -4 62 -92 c35 -51 88 -127 118 -169 80 -110 131
-183 203 -290 l64 -93 97 143 c53 78 95 142 93 142 -5 0 -138 -187 -161 -227
-11 -18 -22 -33 -25 -33 -7 0 -16 13 -248 345 -96 138 -181 258 -190 268 -13
15 -32 17 -136 15 l-121 -2 122 -3z"/>
<path d="M8238 7213 c110 -3 140 -11 112 -28 -9 -6 -27 -29 -276 -365 -273
-368 -297 -399 -308 -397 -6 1 -10 -4 -8 -12 3 -16 -17 -43 -28 -36 -4 3 -14
-3 -21 -13 -13 -15 -12 -16 4 -3 25 19 20 1 -8 -34 l-25 -30 -20 21 c-12 11
-166 213 -343 449 -177 236 -328 431 -336 433 -10 3 -7 -5 7 -23 12 -15 20
-31 17 -35 -3 -5 8 -22 25 -38 16 -17 30 -34 30 -39 0 -5 17 -27 37 -49 20
-21 36 -42 36 -45 -1 -3 15 -26 35 -51 72 -86 171 -219 190 -254 7 -13 17 -24
23 -24 5 0 9 -5 9 -12 0 -6 17 -34 38 -62 21 -28 65 -87 98 -130 66 -88 137
-166 151 -166 5 0 23 12 39 28 30 27 77 91 304 406 58 81 104 142 138 185 15
18 35 47 44 64 10 17 21 33 26 36 14 10 138 175 144 192 12 32 -12 39 -136 37
l-121 -2 123 -3z"/>
<path d="M4672 7190 c0 -14 2 -19 5 -12 2 6 2 18 0 25 -3 6 -5 1 -5 -13z"/>
<path d="M8074 7158 c-41 -60 -49 -78 -22 -46 26 30 62 88 55 88 -2 0 -17 -19
-33 -42z"/>
<path d="M10436 7183 c-6 -14 -5 -15 5 -6 7 7 10 15 7 18 -3 3 -9 -2 -12 -12z"/>
<path d="M7027 7179 c7 -7 15 -10 18 -7 3 3 -2 9 -12 12 -14 6 -15 5 -6 -5z"/>
<path d="M10511 7124 c0 -11 3 -14 6 -6 3 7 2 16 -1 19 -3 4 -6 -2 -5 -13z"/>
<path d="M10605 7120 c-8 -13 5 -13 25 0 13 8 13 10 -2 10 -9 0 -20 -4 -23
-10z"/>
<path d="M10532 7110 c2 -9 -3 -14 -11 -12 -12 3 -12 0 -1 -12 13 -17 25 -22
16 -7 -4 5 0 11 6 14 10 4 10 7 0 18 -11 12 -13 12 -10 -1z"/>
<path d="M7947 6977 c-26 -40 -55 -83 -64 -97 -13 -20 -14 -22 -1 -10 25 24
130 180 121 180 -4 -1 -29 -33 -56 -73z"/>
<path d="M4085 6960 c3 -5 8 -10 11 -10 2 0 4 5 4 10 0 6 -5 10 -11 10 -5 0
-7 -4 -4 -10z"/>
<path d="M11025 6870 c3 -5 8 -10 11 -10 2 0 4 5 4 10 0 6 -5 10 -11 10 -5 0
-7 -4 -4 -10z"/>
<path d="M11106 6872 c-2 -4 -1 -14 5 -22 7 -12 9 -10 9 8 0 23 -5 28 -14 14z"/>
<path d="M3865 6860 c-3 -5 -1 -10 4 -10 6 0 11 5 11 10 0 6 -2 10 -4 10 -3 0
-8 -4 -11 -10z"/>
<path d="M11207 6789 c4 -13 8 -18 11 -10 2 7 -1 18 -6 23 -8 8 -9 4 -5 -13z"/>
<path d="M11250 6750 c-12 -7 -12 -10 -1 -10 7 0 11 -6 8 -14 -3 -8 0 -19 6
-24 9 -8 12 -4 12 14 0 13 -4 24 -8 24 -5 0 -5 5 -2 10 8 12 4 12 -15 0z"/>
<path d="M3550 6691 c0 -25 6 -27 13 -6 4 8 2 17 -3 20 -6 4 -10 -3 -10 -14z"/>
<path d="M11340 6680 c-12 -8 -10 -10 8 -10 13 0 20 4 17 10 -7 12 -6 12 -25
0z"/>
<path d="M7590 6633 c0 -6 8 -17 18 -24 16 -13 16 -13 2 6 -8 11 -16 22 -17
24 -2 2 -3 0 -3 -6z"/>
<path d="M11366 6623 c-6 -14 -5 -15 5 -6 7 7 10 15 7 18 -3 3 -9 -2 -12 -12z"/>
<path d="M3460 6591 c0 -6 4 -13 10 -16 6 -3 7 1 4 9 -7 18 -14 21 -14 7z"/>
<path d="M7630 6570 c6 -11 13 -20 16 -20 2 0 0 9 -6 20 -6 11 -13 20 -16 20
-2 0 0 -9 6 -20z"/>
<path d="M11429 6559 c-7 -4 -6 -8 3 -11 8 -3 22 0 32 8 17 12 17 13 -3 11
-12 -1 -27 -4 -32 -8z"/>
<path d="M7556 6472 c23 -41 76 -103 68 -81 -6 19 11 35 21 19 8 -12 35 -13
35 -1 0 5 -8 8 -17 7 -10 0 -17 5 -15 12 3 17 -9 15 -23 -4 -10 -15 -15 -12
-40 22 -41 55 -51 64 -29 26z"/>
<path d="M3327 6399 c7 -7 15 -10 18 -7 3 3 -2 9 -12 12 -14 6 -15 5 -6 -5z"/>
<path d="M11650 6371 c0 -6 4 -13 10 -16 6 -3 7 1 4 9 -7 18 -14 21 -14 7z"/>
<path d="M11765 6300 c-3 -5 -1 -10 4 -10 6 0 11 5 11 10 0 6 -2 10 -4 10 -3
0 -8 -4 -11 -10z"/>
<path d="M11736 6287 c3 -10 9 -15 12 -12 3 3 0 11 -7 18 -10 9 -11 8 -5 -6z"/>
<path d="M3120 6100 c-9 -6 -10 -10 -3 -10 6 0 15 5 18 10 8 12 4 12 -15 0z"/>
<path d="M3020 6020 c8 -5 22 -9 30 -9 10 0 8 3 -5 9 -27 12 -43 12 -25 0z"/>
<path d="M3975 6020 c4 -6 11 -8 16 -5 14 9 11 15 -7 15 -8 0 -12 -5 -9 -10z"/>
<path d="M4208 6023 c6 -2 18 -2 25 0 6 3 1 5 -13 5 -14 0 -19 -2 -12 -5z"/>
<path d="M3950 6008 c0 -9 19 -27 43 -40 42 -24 65 -58 111 -168 10 -25 28
-63 39 -85 12 -22 20 -41 20 -42 -1 -2 13 -37 32 -78 19 -42 35 -80 35 -85 0
-4 11 -28 25 -51 14 -24 34 -73 46 -109 12 -36 25 -67 29 -70 3 -3 16 -30 29
-60 37 -88 47 -100 86 -100 22 0 35 5 35 13 0 7 16 51 36 97 20 47 44 105 54
130 16 43 35 84 117 260 19 41 41 91 48 110 7 19 28 67 48 105 20 39 36 75 37
80 3 19 35 47 72 62 26 10 35 19 31 30 -3 8 -8 10 -12 5 -3 -5 -23 -17 -43
-25 -21 -9 -46 -30 -57 -47 -10 -18 -92 -197 -182 -399 -89 -201 -167 -372
-172 -378 -24 -32 -44 -13 -85 80 -23 50 -99 224 -171 385 -71 161 -136 304
-146 318 -9 13 -33 32 -53 42 -20 9 -40 22 -44 27 -5 6 -8 3 -8 -7z"/>
<path d="M4763 6013 c9 -2 23 -2 30 0 6 3 -1 5 -18 5 -16 0 -22 -2 -12 -5z"/>
<path d="M4833 6013 c9 -2 25 -2 35 0 9 3 1 5 -18 5 -19 0 -27 -2 -17 -5z"/>
<path d="M2988 6003 c7 -3 16 -2 19 1 4 3 -2 6 -13 5 -11 0 -14 -3 -6 -6z"/>
<path d="M4216 5993 c-39 -20 -36 -30 85 -307 55 -127 112 -261 127 -298 15
-37 30 -68 33 -68 3 0 21 35 38 78 18 42 75 174 127 293 51 118 97 230 100
247 7 35 -8 62 -34 62 -13 0 -12 -3 3 -20 27 -30 17 -65 -95 -321 -56 -128
-108 -250 -117 -271 -9 -22 -19 -36 -23 -31 -4 4 -21 40 -38 78 -16 39 -71
165 -121 282 -50 116 -91 215 -91 221 0 5 10 21 21 36 26 33 22 39 -15 19z"/>
<path d="M3045 5990 c3 -5 8 -10 11 -10 2 0 4 5 4 10 0 6 -5 10 -11 10 -5 0
-7 -4 -4 -10z"/>
<path d="M11973 5993 c4 -3 3 -11 -3 -17 -6 -8 -3 -12 8 -12 10 0 18 8 18 18
0 10 -7 18 -15 18 -8 0 -11 -3 -8 -7z"/>
<path d="M2976 5952 c-3 -5 1 -9 9 -9 8 0 12 4 9 9 -3 4 -7 8 -9 8 -2 0 -6 -4
-9 -8z"/>
<path d="M7108 5933 c28 -2 76 -2 105 0 28 2 5 3 -53 3 -58 0 -81 -1 -52 -3z"/>
<path d="M5130 5808 c-29 -68 -70 -161 -90 -208 -20 -47 -61 -141 -90 -210
-71 -166 -81 -182 -121 -202 -38 -19 -24 -25 16 -6 15 7 35 29 46 50 24 46
206 469 224 518 7 19 29 68 48 108 19 39 32 72 28 72 -5 0 -32 -55 -61 -122z"/>
<path d="M6995 5920 c-25 -11 1 -11 35 0 20 6 21 8 5 8 -11 0 -29 -3 -40 -8z"/>
<path d="M7283 5923 c9 -2 25 -2 35 0 9 3 1 5 -18 5 -19 0 -27 -2 -17 -5z"/>
<path d="M8855 5868 c-44 -101 -59 -134 -130 -303 -98 -231 -145 -338 -159
-354 -6 -8 -24 -20 -41 -27 -16 -7 -25 -13 -18 -14 31 -1 67 28 88 70 13 25
52 116 88 201 36 84 97 228 136 318 39 91 69 166 67 168 -2 2 -16 -25 -31 -59z"/>
<path d="M5240 5919 c0 -7 71 -171 198 -459 99 -223 141 -290 180 -290 11 0 7
6 -13 18 -43 27 -48 35 -99 155 -26 60 -63 143 -82 185 -39 84 -95 209 -139
312 -24 58 -45 94 -45 79z"/>
<path d="M5790 5571 l-5 -353 -34 -29 c-25 -21 -29 -26 -13 -22 11 3 29 14 39
25 16 18 18 45 21 277 2 141 1 301 0 356 -2 55 -5 -59 -8 -254z"/>
<path d="M6135 5620 l300 -300 3 222 c2 123 0 242 -3 266 -7 49 -34 82 -67 82
-22 -1 -21 -2 5 -16 15 -8 32 -26 37 -40 6 -14 10 -130 10 -257 l-1 -232 -282
288 c-155 158 -286 287 -292 287 -5 0 125 -135 290 -300z"/>
<path d="M6358 5913 c6 -2 18 -2 25 0 6 3 1 5 -13 5 -14 0 -19 -2 -12 -5z"/>
<path d="M6438 5913 c23 -2 61 -2 85 0 23 2 4 4 -43 4 -47 0 -66 -2 -42 -4z"/>
<path d="M7360 5910 c14 -4 34 -8 45 -8 16 0 15 2 -5 8 -14 4 -34 8 -45 8 -16
0 -15 -2 5 -8z"/>
<path d="M7732 5913 c37 -2 100 -2 140 0 40 1 10 3 -67 3 -77 0 -110 -1 -73
-3z"/>
<path d="M8230 5910 c0 -11 51 -60 62 -60 12 0 10 -505 -3 -537 -22 -60 -100
-112 -166 -113 -17 0 -35 -5 -38 -11 -12 -18 65 0 125 29 45 23 59 36 82 81
l28 53 0 238 c0 132 -4 250 -9 263 -5 13 -24 30 -43 38 -32 13 -28 14 82 20
l115 5 -117 2 c-70 1 -118 -2 -118 -8z"/>
<path d="M8954 5888 c8 -18 52 -118 99 -223 46 -104 108 -245 137 -312 54
-127 96 -183 134 -183 16 0 14 4 -12 17 -36 17 -62 50 -82 103 -7 19 -23 58
-35 85 -13 28 -46 104 -75 170 -28 66 -60 138 -70 160 -10 22 -37 79 -59 128
-22 48 -42 87 -45 87 -4 0 0 -15 8 -32z"/>
<path d="M9420 5906 c0 -7 16 -24 35 -37 23 -16 37 -34 40 -54 3 -16 4 -160 3
-318 l-3 -289 -24 -19 c-13 -10 -18 -19 -12 -19 6 0 20 9 31 20 19 19 20 33
20 338 0 346 -1 351 -57 368 -21 7 6 10 97 14 l125 6 -127 2 c-103 2 -128 -1
-128 -12z"/>
<path d="M9757 5910 c45 -5 91 -13 102 -19 11 -6 23 -11 28 -11 4 1 -5 8 -21
16 -17 10 -61 17 -110 19 l-81 4 82 -9z"/>
<path d="M10413 5913 c64 -2 170 -2 235 0 64 1 11 3 -118 3 -129 0 -182 -2
-117 -3z"/>
<path d="M12050 5911 c0 -6 5 -13 11 -17 7 -4 8 -9 1 -13 -6 -4 -5 -11 4 -19
11 -10 13 -6 12 23 -1 22 -6 35 -15 35 -7 0 -13 -4 -13 -9z"/>
<path d="M6555 5890 c-54 -30 -55 -37 -55 -402 0 -317 -1 -338 -18 -338 -10 0
-149 132 -317 300 -164 165 -299 300 -300 300 0 0 1 -120 3 -267 3 -257 4
-269 24 -290 12 -13 27 -23 34 -23 7 0 -1 13 -17 29 l-29 29 0 226 c0 165 3
226 12 226 6 0 135 -124 285 -275 230 -231 279 -275 303 -275 16 0 30 7 34 16
3 9 6 165 6 347 l0 331 37 38 c42 43 41 53 -2 28z"/>
<path d="M6918 5889 c-21 -11 -38 -22 -38 -24 0 -5 79 32 89 41 12 11 -18 1
-51 -17z"/>
<path d="M7945 5901 c-3 -6 -14 -11 -24 -11 -10 0 -25 -8 -34 -18 -15 -16 -17
-50 -17 -275 0 -156 4 -267 11 -284 22 -60 110 -123 169 -122 16 0 9 5 -21 13
-60 16 -102 47 -125 93 -17 33 -19 68 -22 284 l-3 246 42 37 c23 20 40 38 37
42 -3 3 -9 1 -13 -5z"/>
<path d="M10818 5894 c130 -35 202 -87 253 -186 19 -35 24 -63 27 -150 4 -103
3 -110 -26 -172 -37 -79 -105 -149 -177 -182 -94 -43 -172 -54 -402 -54 -183
0 -213 -2 -213 -15 0 -13 24 -15 143 -17 293 -5 376 6 496 67 80 41 124 86
159 164 46 104 53 141 42 224 -21 166 -93 258 -245 313 -36 13 -76 24 -88 23
-12 0 2 -7 31 -15z"/>
<path d="M7674 5889 c-3 -5 2 -9 10 -9 8 0 24 -12 35 -26 20 -25 21 -39 21
-283 l0 -256 36 -61 c39 -66 89 -103 169 -126 153 -44 357 8 415 105 10 18 25
39 32 47 10 11 14 80 16 285 l3 270 37 34 c33 30 34 33 12 26 -14 -4 -34 -16
-45 -26 -19 -18 -20 -36 -25 -282 -5 -244 -6 -265 -27 -302 -28 -53 -57 -79
-123 -109 -165 -75 -381 -26 -454 104 l-31 55 -3 260 c-3 213 -6 263 -18 277
-19 20 -52 29 -60 17z"/>
<path d="M10280 5894 c0 -3 14 -17 30 -31 l30 -25 0 -313 0 -314 -26 -20 c-28
-22 -25 -28 6 -11 10 5 23 24 29 41 15 44 15 599 0 632 -12 27 -69 61 -69 41z"/>
<path d="M7083 5880 c-95 -20 -163 -72 -205 -158 -31 -62 -33 -73 -33 -172 0
-119 16 -168 81 -247 61 -74 173 -124 274 -122 41 1 40 2 -18 10 -109 14 -160
36 -223 98 -75 74 -99 137 -99 263 0 106 17 151 87 222 59 61 124 80 253 74
109 -6 167 -29 196 -78 19 -31 39 -44 55 -34 5 3 8 40 7 82 l-2 77 -3 -73 c-2
-40 -8 -72 -12 -70 -5 2 -24 23 -43 48 -25 34 -46 49 -84 62 -62 21 -176 30
-231 18z"/>
<path d="M9933 5847 c84 -85 63 -233 -43 -299 l-48 -30 114 -146 c109 -139
176 -203 213 -202 9 1 -5 12 -31 26 -35 17 -68 50 -121 117 -148 188 -163 209
-151 206 36 -6 87 38 115 99 42 91 10 214 -65 254 -10 6 -3 -6 17 -25z"/>
<path d="M9622 5703 c3 -159 4 -168 23 -170 11 -2 14 0 8 3 -10 4 -13 45 -13
155 l0 149 50 0 c109 0 170 -50 170 -139 0 -72 -21 -116 -67 -140 -21 -11 -30
-20 -21 -21 9 0 32 15 51 33 58 54 71 151 31 229 -22 42 -84 68 -167 68 l-67
0 2 -167z"/>
<path d="M10478 5864 c-10 -10 -10 -625 0 -641 14 -22 63 -33 145 -31 l82 1
-95 7 c-53 3 -101 10 -108 14 -9 5 -12 86 -12 318 l0 311 128 -6 c165 -7 221
-25 274 -88 22 -26 41 -53 42 -60 1 -8 10 -38 19 -68 22 -71 21 -145 -2 -219
-23 -76 -49 -112 -108 -151 -25 -17 -42 -31 -35 -31 19 0 96 65 125 106 42 59
65 186 48 268 -25 125 -83 205 -180 249 -37 17 -72 22 -181 25 -74 2 -138 1
-142 -4z"/>
<path d="M6814 5815 c-125 -125 -150 -339 -59 -492 86 -144 228 -214 435 -214
92 0 232 31 262 58 14 12 17 40 20 160 l3 145 29 23 c16 12 27 28 25 34 -3 7
-18 0 -39 -18 l-35 -29 -5 -148 -5 -149 -85 -22 c-155 -40 -303 -29 -427 32
-144 71 -213 186 -213 356 0 106 26 172 97 249 65 70 63 80 -3 15z"/>
<path d="M12050 5821 c-13 -26 -13 -31 5 -31 8 0 15 -5 15 -12 0 -6 3 -8 6 -5
4 4 1 14 -7 23 -11 13 -11 18 -1 21 14 5 16 23 2 23 -5 0 -14 -9 -20 -19z"/>
<path d="M5136 5652 c-27 -70 -54 -133 -59 -139 -7 -10 -2 -13 19 -13 20 0 25
3 15 9 -10 7 -11 13 -1 31 6 12 20 47 31 78 11 30 26 64 35 74 16 16 18 14 44
-40 14 -31 35 -78 45 -104 10 -27 22 -48 27 -48 13 0 3 27 -48 143 -24 53 -44
104 -44 111 0 44 -21 11 -64 -102z"/>
<path d="M8829 5639 c-51 -125 -55 -139 -37 -139 10 0 17 4 14 8 -9 15 70 212
84 212 4 0 20 -33 35 -72 16 -40 36 -87 46 -105 13 -23 15 -33 6 -37 -7 -2 -4
-5 6 -5 9 -1 17 3 17 8 0 10 -101 253 -109 263 -3 3 -31 -56 -62 -133z"/>
<path d="M12035 5770 c-3 -5 -1 -10 4 -10 6 0 11 5 11 10 0 6 -2 10 -4 10 -3
0 -8 -4 -11 -10z"/>
<path d="M12055 5749 c-11 -16 -1 -19 13 -3 7 8 8 14 3 14 -5 0 -13 -5 -16
-11z"/>
<path d="M12122 5724 c-7 -14 -8 -23 -2 -19 15 9 32 45 22 45 -5 0 -14 -12
-20 -26z"/>
<path d="M12065 5720 c-3 -5 -1 -10 4 -10 6 0 11 5 11 10 0 6 -2 10 -4 10 -3
0 -8 -4 -11 -10z"/>
<path d="M12055 5670 c-3 -5 -2 -10 4 -10 5 0 13 5 16 10 3 6 2 10 -4 10 -5 0
-13 -4 -16 -10z"/>
<path d="M12056 5632 c-3 -5 1 -9 9 -9 8 0 12 4 9 9 -3 4 -7 8 -9 8 -2 0 -6
-4 -9 -8z"/>
<path d="M12060 5595 c-10 -12 -10 -15 4 -15 9 0 16 7 16 15 0 8 -2 15 -4 15
-2 0 -9 -7 -16 -15z"/>
<path d="M12122 5568 c-7 -7 -12 -16 -12 -21 0 -5 7 -1 16 8 9 9 14 18 12 20
-2 3 -10 -1 -16 -7z"/>
<path d="M7318 5543 c34 -2 90 -2 125 0 34 2 6 3 -63 3 -69 0 -97 -1 -62 -3z"/>
<path d="M9693 5533 c9 -2 25 -2 35 0 9 3 1 5 -18 5 -19 0 -27 -2 -17 -5z"/>
<path d="M7250 5523 c0 -6 16 -18 35 -29 20 -10 38 -28 41 -39 3 -11 4 -69 2
-130 l-3 -109 -40 -12 c-22 -7 -33 -13 -24 -13 9 -1 30 4 48 10 l31 11 0 134
c0 121 -2 136 -20 154 -11 11 -24 20 -29 20 -5 0 -16 3 -25 6 -9 3 -16 2 -16
-3z"/>
<path d="M12045 5512 c-3 -3 0 -11 6 -19 11 -13 0 -19 -26 -13 -5 1 -6 -2 -2
-7 12 -11 30 -11 40 2 5 6 7 1 5 -10 -2 -12 -11 -19 -21 -19 -9 1 -14 -2 -11
-7 3 -5 13 -9 22 -9 20 0 29 45 11 55 -7 5 -7 11 0 19 8 9 7 13 -4 13 -8 0
-17 -3 -20 -5z"/>
<path d="M9620 5356 c0 -120 2 -136 21 -160 11 -14 27 -26 36 -26 11 0 7 7
-11 21 -26 20 -26 22 -26 145 l0 124 38 0 c51 0 76 -20 128 -102 25 -39 50
-75 55 -82 5 -6 23 -29 39 -52 49 -67 94 -93 181 -100 50 -4 83 -3 97 5 37 20
25 26 -41 23 -135 -7 -186 29 -317 225 l-75 113 -62 0 -63 0 0 -134z"/>
<path d="M5006 5335 c-25 -63 -46 -119 -46 -124 0 -16 30 -41 48 -40 12 0 11
3 -5 9 -13 5 -23 16 -23 23 0 22 38 125 54 149 9 12 16 31 16 40 0 29 44 39
159 36 101 -3 106 -4 117 -28 58 -121 77 -170 78 -197 1 -33 18 -40 24 -10 2
9 -20 70 -49 136 l-52 121 -138 0 -137 0 -46 -115z"/>
<path d="M8716 5365 c-53 -127 -62 -161 -46 -180 7 -8 20 -15 29 -14 10 0 8 3
-7 10 -27 10 -26 17 18 119 15 36 32 77 38 91 12 32 42 39 156 39 100 0 124
-6 131 -34 4 -11 25 -63 47 -114 37 -86 39 -95 24 -111 -15 -16 -15 -19 4 -36
17 -16 33 -17 121 -12 152 8 152 27 1 27 -67 0 -122 3 -122 7 0 3 7 14 16 24
14 16 11 27 -39 141 l-55 123 -140 3 -140 3 -36 -86z"/>
<path d="M12061 5413 c7 -3 0 -11 -17 -19 l-29 -12 28 -1 c15 -1 27 -5 27 -11
0 -5 -6 -7 -14 -4 -11 4 -13 0 -9 -17 l6 -22 18 22 c19 23 13 63 -10 67 -9 2
-9 1 0 -3z"/>
<path d="M3046 5344 c-9 -35 -2 -40 12 -9 6 13 7 27 3 30 -5 2 -12 -7 -15 -21z"/>
<path d="M12035 5312 c-3 -7 -5 -25 -5 -40 0 -25 1 -25 14 -6 11 14 11 22 3
32 -8 10 -7 12 4 10 8 -2 17 -7 21 -13 5 -6 8 -5 8 3 0 8 5 10 13 6 9 -6 8 -3
-1 8 -16 20 -49 19 -57 0z"/>
<path d="M2970 5312 c0 -5 7 -9 15 -9 8 0 12 4 9 9 -3 4 -9 8 -15 8 -5 0 -9
-4 -9 -8z"/>
<path d="M3047 5270 c-3 -11 -1 -20 4 -20 5 0 9 9 9 20 0 11 -2 20 -4 20 -2 0
-6 -9 -9 -20z"/>
<path d="M11968 5258 c13 -13 17 -32 5 -25 -5 3 -8 -9 -7 -26 0 -18 -6 -39
-13 -48 -12 -14 -12 -17 0 -22 9 -3 14 1 13 11 -1 10 6 16 17 16 21 -2 22 5 0
21 -13 9 -13 14 -3 20 9 5 11 4 6 -3 -4 -7 -1 -12 6 -12 7 0 13 11 13 24 0 13
-4 22 -9 18 -5 -3 -7 2 -3 11 3 9 -1 18 -9 21 -24 9 -29 7 -16 -6z"/>
<path d="M3129 5223 c-13 -16 -12 -17 4 -4 9 7 17 15 17 17 0 8 -8 3 -21 -13z"/>
<path d="M10745 5210 c-28 -7 -28 -8 -5 -9 14 0 32 4 40 9 17 11 8 11 -35 0z"/>
<path d="M3118 5173 c6 -2 18 -2 25 0 6 3 1 5 -13 5 -14 0 -19 -2 -12 -5z"/>
<path d="M4907 5152 c-88 -2 -117 -6 -114 -15 2 -8 38 -13 115 -14 92 -1 111
1 116 14 4 9 5 16 4 17 -2 1 -56 0 -121 -2z"/>
<path d="M5517 5152 c-88 -2 -117 -6 -114 -15 2 -8 38 -13 114 -15 96 -2 111
0 117 14 4 9 5 17 4 18 -2 1 -56 0 -121 -2z"/>
<path d="M8598 5153 c-177 -5 -148 -33 33 -33 82 0 89 2 89 20 0 11 -1 19 -2
18 -2 -1 -56 -4 -120 -5z"/>
<path d="M9567 5152 c-96 -2 -127 -6 -124 -15 2 -8 39 -13 119 -15 94 -2 117
0 128 13 7 8 11 16 9 18 -2 1 -62 1 -132 -1z"/>
<path d="M5720 5141 c0 -16 30 -21 130 -21 78 0 99 3 104 15 5 13 -12 15 -114
15 -66 0 -120 -4 -120 -9z"/>
<path d="M3376 4912 c-3 -5 1 -9 9 -9 8 0 12 4 9 9 -3 4 -7 8 -9 8 -2 0 -6 -4
-9 -8z"/>
<path d="M11797 4864 c-13 -13 6 -34 25 -28 10 3 27 0 36 -8 15 -11 15 -11 5
3 -7 9 -9 20 -5 24 4 5 -2 5 -13 1 -32 -12 -40 -12 -37 2 2 13 -1 15 -11 6z"/>
<path d="M7558 4823 c12 -2 30 -2 40 0 9 3 -1 5 -23 4 -22 0 -30 -2 -17 -4z"/>
<path d="M7459 4797 c-81 -54 -105 -193 -45 -271 30 -40 54 -52 126 -66 46 -9
140 4 140 20 0 4 9 10 20 13 18 5 20 13 18 89 -1 52 -3 65 -5 33 -5 -79 -10
-92 -45 -106 -47 -20 -145 -17 -190 5 -110 53 -109 227 2 284 24 12 37 22 29
22 -9 0 -31 -10 -50 -23z"/>
<path d="M7621 4816 c2 -2 18 -6 34 -10 22 -5 26 -4 15 4 -14 9 -59 15 -49 6z"/>
<path d="M8644 4813 c17 -4 18 -15 14 -148 l-3 -144 30 6 c40 8 45 13 12 13
l-26 0 -3 137 c-3 129 -4 138 -23 140 -18 2 -18 1 -1 -4z"/>
<path d="M6361 4668 c-1 -131 1 -147 15 -141 9 3 12 9 7 12 -5 3 -8 35 -7 71
0 36 -2 97 -6 135 -6 58 -7 46 -9 -77z"/>
<path d="M8193 4800 c3 -8 35 -79 71 -157 57 -126 63 -143 45 -143 -13 0 -26
14 -41 45 l-22 45 -85 0 -86 0 -18 -45 c-13 -31 -25 -45 -38 -45 -10 0 -19 2
-19 3 0 2 26 60 59 128 32 68 61 135 65 149 4 14 -13 -15 -37 -65 -106 -218
-113 -245 -63 -245 17 0 26 7 30 25 12 46 44 65 110 65 73 0 81 -5 101 -53 16
-40 43 -49 65 -22 10 12 1 40 -50 155 -35 77 -69 148 -77 158 -11 12 -13 13
-10 2z"/>
<path d="M11825 4800 c3 -5 11 -10 16 -10 6 0 7 5 4 10 -3 6 -11 10 -16 10 -6
0 -7 -4 -4 -10z"/>
<path d="M6308 4741 c-5 -35 -8 -106 -8 -157 0 -121 3 -124 123 -124 124 0
137 5 136 44 -1 17 -3 23 -6 14 -4 -16 -18 -18 -118 -18 l-114 0 -3 153 c-3
127 -4 141 -10 88z"/>
<path d="M6840 4637 c2 -137 4 -167 17 -171 19 -8 211 -7 239 0 14 4 20 12 17
22 -3 15 -19 17 -128 14 l-125 -3 0 145 c0 89 -4 147 -10 151 -7 5 -10 -46
-10 -158z"/>
<path d="M6997 4792 l-109 -3 4 -57 4 -57 35 -1 c26 -1 28 -1 7 3 -25 4 -28 9
-28 42 l0 38 96 6 c53 3 98 8 101 11 16 16 -14 21 -110 18z"/>
<path d="M7697 4780 c6 -24 3 -24 -56 -4 -131 47 -242 -51 -196 -173 23 -59
76 -88 152 -80 29 3 57 8 63 12 5 3 10 28 10 55 l0 48 -59 4 c-45 2 -57 0 -49
-9 5 -7 28 -13 51 -15 39 -3 42 -5 45 -36 3 -27 -1 -34 -25 -43 -38 -15 -110
-5 -142 18 -31 24 -46 69 -37 116 5 26 17 42 47 62 42 27 62 29 179 13 21 -2
26 2 28 25 2 15 -1 27 -6 27 -6 0 -8 -9 -5 -20z"/>
<path d="M8600 4636 c2 -136 4 -166 17 -170 20 -8 212 -7 241 0 17 5 21 11 16
28 -3 11 -11 26 -16 31 -6 6 -7 4 -3 -7 7 -17 -3 -18 -114 -18 l-121 0 0 150
c0 97 -4 150 -10 150 -7 0 -10 -57 -10 -164z"/>
<path d="M11757 4781 c2 -9 -2 -11 -13 -7 -14 5 -15 4 -4 -8 10 -13 14 -13 26
-1 16 15 19 29 5 21 -5 -4 -11 -3 -14 1 -2 5 -2 2 0 -6z"/>
<path d="M8127 4699 l-34 -74 65 -3 c35 -2 66 -1 69 2 5 5 -45 125 -59 140 -4
5 -23 -24 -41 -65z m68 -26 c8 -19 15 -37 15 -39 0 -2 -20 -4 -45 -4 -25 0
-45 4 -45 9 0 19 42 81 51 75 5 -3 16 -21 24 -41z"/>
<path d="M11721 4736 c-9 -11 -9 -16 1 -22 7 -4 10 -4 6 1 -4 4 -3 14 3 22 6
7 9 13 6 13 -2 0 -10 -6 -16 -14z"/>
<path d="M4138 4723 c-25 -6 -23 -50 2 -63 14 -8 297 -10 935 -8 801 3 917 5
925 18 13 20 13 50 0 50 -6 0 -9 -6 -8 -12 2 -10 -190 -14 -929 -16 -547 -1
-933 2 -933 7 0 5 6 11 14 14 7 3 198 4 424 4 225 -1 408 1 405 6 -4 7 -805 8
-835 0z"/>
<path d="M5014 4719 c-3 -5 25 -8 61 -8 36 1 65 5 65 10 0 12 -119 9 -126 -2z"/>
<path d="M5150 4726 c0 -2 7 -6 15 -10 8 -3 15 -1 15 4 0 6 -7 10 -15 10 -8 0
-15 -2 -15 -4z"/>
<path d="M5200 4721 c0 -10 219 -5 229 4 2 3 -48 5 -112 5 -66 0 -117 -4 -117
-9z"/>
<path d="M5440 4722 c0 -4 36 -8 80 -10 51 -2 80 1 80 8 0 6 -31 10 -80 10
-44 0 -80 -3 -80 -8z"/>
<path d="M5618 4723 c7 -3 16 -2 19 1 4 3 -2 6 -13 5 -11 0 -14 -3 -6 -6z"/>
<path d="M5680 4718 c0 -8 108 -4 117 5 2 3 -23 5 -56 5 -34 -1 -61 -5 -61
-10z"/>
<path d="M5853 4723 c26 -2 67 -2 90 0 23 2 2 3 -48 3 -49 0 -68 -1 -42 -3z"/>
<path d="M9150 4727 c3 -3 30 -8 60 -11 30 -3 49 -2 42 2 -13 9 -110 16 -102
9z"/>
<path d="M9271 4726 c8 -8 155 -12 189 -5 21 4 -9 7 -79 8 -63 0 -112 -1 -110
-3z"/>
<path d="M9501 4726 c7 -8 209 -9 216 -2 4 3 -45 6 -107 6 -62 0 -111 -2 -109
-4z"/>
<path d="M9732 4725 c7 -7 428 -8 435 -1 4 3 -94 6 -217 6 -123 0 -221 -2
-218 -5z"/>
<path d="M10225 4724 c18 -7 925 -9 925 -1 0 4 -210 7 -467 6 -258 0 -463 -2
-458 -5z"/>
<path d="M9121 4704 c-3 -51 -40 -49 1042 -52 962 -3 1010 -2 1022 15 8 11 10
22 4 29 -5 6 -6 14 -2 17 3 4 1 7 -5 7 -7 0 -12 -7 -12 -15 0 -13 -120 -15
-1019 -15 -963 0 -1020 1 -1024 18 -4 13 -5 13 -6 -4z"/>
<path d="M11655 4679 c-4 -6 -5 -12 -2 -15 2 -3 7 2 10 11 7 17 1 20 -8 4z"/>
<path d="M7068 4659 c-3 -8 -34 -11 -91 -11 l-87 1 0 -59 0 -60 33 1 c23 1 26
3 10 6 -19 4 -23 11 -23 44 l0 39 68 2 c37 0 74 1 82 2 8 1 16 11 18 24 4 23
-4 30 -10 11z"/>
<path d="M11575 4630 c-3 -5 -2 -10 4 -10 5 0 13 5 16 10 3 6 2 10 -4 10 -5 0
-13 -4 -16 -10z"/>
<path d="M3491 4614 c0 -11 3 -14 6 -6 3 7 2 16 -1 19 -3 4 -6 -2 -5 -13z"/>
<path d="M6413 4533 c9 -2 25 -2 35 0 9 3 1 5 -18 5 -19 0 -27 -2 -17 -5z"/>
<path d="M11393 4520 c-13 -5 -23 -11 -23 -14 0 -7 40 6 46 15 6 10 6 10 -23
-1z"/>
<path d="M3660 4495 c-11 -13 -10 -14 4 -9 9 3 16 10 16 15 0 13 -6 11 -20 -6z"/>
<path d="M3767 4467 c-3 -8 1 -14 8 -14 7 0 11 6 8 14 -3 7 -6 13 -8 13 -2 0
-5 -6 -8 -13z"/>
<path d="M3846 4465 c-9 -26 -7 -32 5 -12 6 10 9 21 6 23 -2 3 -7 -2 -11 -11z"/>
<path d="M3870 4440 c0 -5 5 -10 11 -10 5 0 7 5 4 10 -3 6 -8 10 -11 10 -2 0
-4 -4 -4 -10z"/>
<path d="M4210 4304 c0 -6 7 -19 16 -30 14 -18 14 -18 3 6 -14 31 -19 36 -19
24z"/>
<path d="M10946 4288 c3 -4 11 -5 19 -1 21 7 19 12 -4 10 -11 0 -18 -5 -15 -9z"/>
<path d="M4430 4235 c0 -2 6 -8 13 -14 10 -8 14 -7 14 2 0 8 -6 14 -14 14 -7
0 -13 -1 -13 -2z"/>
<path d="M4565 4230 c3 -5 8 -10 11 -10 2 0 4 5 4 10 0 6 -5 10 -11 10 -5 0
-7 -4 -4 -10z"/>
<path d="M4645 4230 c-3 -5 -3 -14 0 -20 8 -13 35 -13 35 -1 0 5 8 12 18 14
13 4 11 5 -5 6 -13 0 -23 -3 -23 -9 0 -5 -5 -10 -11 -10 -6 0 -9 7 -5 15 6 17
0 20 -9 5z"/>
<path d="M10790 4215 c0 -16 16 -20 24 -6 3 5 -1 11 -9 15 -9 3 -15 0 -15 -9z"/>
<path d="M10430 4129 c0 -5 5 -7 10 -4 6 3 10 8 10 11 0 2 -4 4 -10 4 -5 0
-10 -5 -10 -11z"/>
<path d="M4920 4109 c0 -5 5 -7 10 -4 6 3 10 8 10 11 0 2 -4 4 -10 4 -5 0 -10
-5 -10 -11z"/>
<path d="M10451 4111 c-8 -5 -9 -11 -3 -15 5 -3 12 1 16 9 6 17 6 18 -13 6z"/>
<path d="M10360 4079 c0 -5 5 -7 10 -4 6 3 10 8 10 11 0 2 -4 4 -10 4 -5 0
-10 -5 -10 -11z"/>
<path d="M5176 4067 c3 -10 9 -15 12 -12 3 3 0 11 -7 18 -10 9 -11 8 -5 -6z"/>
<path d="M9925 4052 c8 -31 13 -38 21 -29 4 4 2 13 -4 20 -7 8 -9 17 -6 20 10
9 32 -16 27 -30 -3 -7 2 -13 11 -13 23 0 20 23 -6 40 -39 24 -51 22 -43 -8z"/>
<path d="M10000 4067 c0 -9 5 -17 11 -17 5 0 7 -6 3 -12 -4 -7 -4 -10 1 -6 4
4 16 3 26 -3 16 -8 19 -6 19 13 0 17 -3 19 -9 10 -7 -11 -13 -9 -30 9 -17 19
-21 20 -21 6z"/>
<path d="M10070 4060 c0 -6 7 -10 15 -10 8 0 15 2 15 4 0 2 -7 6 -15 10 -8 3
-15 1 -15 -4z"/>
<path d="M5200 4055 c0 -5 5 -17 10 -25 5 -8 10 -10 10 -5 0 6 -5 17 -10 25
-5 8 -10 11 -10 5z"/>
<path d="M5236 4043 c-6 -14 -5 -15 5 -6 7 7 10 15 7 18 -3 3 -9 -2 -12 -12z"/>
<path d="M5608 4048 c5 -5 16 -8 23 -6 8 3 3 7 -10 11 -17 4 -21 3 -13 -5z"/>
<path d="M9765 4050 c3 -5 8 -10 11 -10 2 0 4 5 4 10 0 6 -5 10 -11 10 -5 0
-7 -4 -4 -10z"/>
<path d="M5477 4043 c-4 -3 -7 -11 -7 -17 0 -6 5 -5 12 2 6 6 9 14 7 17 -3 3
-9 2 -12 -2z"/>
<path d="M9807 4037 c-3 -7 3 -13 14 -13 13 0 15 3 7 13 -6 7 -12 13 -13 13
-2 0 -5 -6 -8 -13z"/>
<path d="M10113 4035 c0 -7 8 -10 19 -7 20 5 17 15 -6 18 -7 1 -13 -4 -13 -11z"/>
<path d="M5315 4030 c3 -5 8 -10 11 -10 2 0 4 5 4 10 0 6 -5 10 -11 10 -5 0
-7 -4 -4 -10z"/>
<path d="M9495 3990 c-3 -5 -1 -10 4 -10 6 0 11 5 11 10 0 6 -2 10 -4 10 -3 0
-8 -4 -11 -10z"/>
<path d="M9687 3988 c-3 -8 -2 -21 3 -27 11 -19 23 5 12 25 -8 14 -10 14 -15
2z"/>
<path d="M9575 3980 c-4 -6 -11 -7 -17 -4 -7 4 -8 2 -4 -4 4 -6 14 -8 22 -5
10 4 17 -2 21 -15 4 -18 8 -19 24 -9 10 6 19 19 19 27 -1 12 -3 11 -11 -3 -8
-14 -14 -16 -25 -6 -7 6 -11 15 -8 20 3 5 1 9 -5 9 -5 0 -13 -5 -16 -10z"/>
<path d="M9465 3969 c-4 -6 1 -16 11 -24 20 -14 34 -11 33 8 0 9 -2 9 -6 0 -3
-10 -7 -10 -18 0 -7 7 -11 15 -8 20 2 4 2 7 -1 7 -3 0 -8 -5 -11 -11z"/>
<path d="M9655 3971 c-3 -5 -2 -12 3 -15 5 -3 9 1 9 9 0 17 -3 19 -12 6z"/>
<path d="M5725 3960 c-3 -5 -1 -10 4 -10 6 0 11 5 11 10 0 6 -2 10 -4 10 -3 0
-8 -4 -11 -10z"/>
<path d="M9206 3952 c-3 -5 1 -9 9 -9 8 0 12 4 9 9 -3 4 -7 8 -9 8 -2 0 -6 -4
-9 -8z"/>
<path d="M9430 3944 c0 -8 5 -12 10 -9 6 4 8 11 5 16 -9 14 -15 11 -15 -7z"/>
<path d="M9527 3954 c-13 -14 -7 -26 7 -15 10 8 16 9 19 1 3 -6 4 -5 3 2 -3
14 -20 21 -29 12z"/>
<path d="M9390 3940 c8 -5 20 -10 25 -10 6 0 3 5 -5 10 -8 5 -19 10 -25 10 -5
0 -3 -5 5 -10z"/>
<path d="M5960 3930 c0 -5 5 -10 11 -10 5 0 7 5 4 10 -3 6 -8 10 -11 10 -2 0
-4 -4 -4 -10z"/>
<path d="M8957 3907 c-3 -8 1 -14 9 -14 8 0 14 6 14 14 0 7 -4 13 -9 13 -5 0
-11 -6 -14 -13z"/>
<path d="M5966 3895 c-3 -10 -3 -22 3 -28 12 -12 20 4 11 27 -6 19 -7 19 -14
1z"/>
<path d="M6575 3888 c18 -30 30 -35 40 -18 3 6 1 10 -6 10 -7 0 -21 8 -32 18
-20 17 -20 17 -2 -10z"/>
<path d="M7810 3890 c0 -5 5 -10 11 -10 5 0 7 5 4 10 -3 6 -8 10 -11 10 -2 0
-4 -4 -4 -10z"/>
<path d="M6065 3881 c-3 -5 -2 -12 3 -15 5 -3 9 1 9 9 0 17 -3 19 -12 6z"/>
<path d="M6365 3879 c-4 -6 -5 -12 -2 -15 2 -3 7 2 10 11 7 17 1 20 -8 4z"/>
<path d="M8010 3870 c0 -5 5 -10 11 -10 5 0 7 5 4 10 -3 6 -8 10 -11 10 -2 0
-4 -4 -4 -10z"/>
<path d="M8735 3870 c3 -5 8 -10 11 -10 2 0 4 5 4 10 0 6 -5 10 -11 10 -5 0
-7 -4 -4 -10z"/>
<path d="M6328 3863 c7 -3 16 -2 19 1 4 3 -2 6 -13 5 -11 0 -14 -3 -6 -6z"/>
<path d="M7767 3863 c-10 -10 -8 -23 4 -23 5 0 8 4 5 9 -4 5 0 12 6 14 7 3 8
6 2 6 -6 1 -14 -2 -17 -6z"/>
<path d="M8475 3860 c-3 -5 -1 -10 4 -10 6 0 11 5 11 10 0 6 -2 10 -4 10 -3 0
-8 -4 -11 -10z"/>
<path d="M6710 3846 c0 -8 4 -17 9 -20 5 -4 7 3 4 14 -6 23 -13 26 -13 6z"/>
<path d="M7578 3853 c7 -3 16 -2 19 1 4 3 -2 6 -13 5 -11 0 -14 -3 -6 -6z"/>
<path d="M7310 3837 c0 -19 34 -37 51 -26 8 5 10 9 4 9 -5 0 -3 5 5 10 13 8
12 10 -2 10 -10 0 -18 -4 -18 -10 0 -5 -7 -7 -16 -3 -13 5 -13 7 -2 14 10 7 9
9 -4 9 -10 0 -18 -6 -18 -13z"/>
<path d="M6486 3825 c-3 -8 -1 -15 4 -15 6 0 10 7 10 15 0 8 -2 15 -4 15 -2 0
-6 -7 -10 -15z"/>
<path d="M6910 3825 c0 -8 2 -15 4 -15 2 0 6 7 10 15 3 8 1 15 -4 15 -6 0 -10
-7 -10 -15z"/>
<path d="M7265 3829 c-4 -6 -5 -12 -2 -15 2 -3 7 2 10 11 7 17 1 20 -8 4z"/>
<path d="M7710 3829 c0 -5 5 -7 10 -4 6 3 10 8 10 11 0 2 -4 4 -10 4 -5 0 -10
-5 -10 -11z"/>
<path d="M7205 3820 c-3 -5 -2 -10 4 -10 5 0 13 5 16 10 3 6 2 10 -4 10 -5 0
-13 -4 -16 -10z"/>
<path d="M7620 3819 c0 -5 5 -7 10 -4 6 3 10 8 10 11 0 2 -4 4 -10 4 -5 0 -10
-5 -10 -11z"/>
<path d="M7920 3820 c0 -5 7 -7 15 -4 8 4 15 8 15 10 0 2 -7 4 -15 4 -8 0 -15
-4 -15 -10z"/>
<path d="M7890 3810 c-13 -8 -12 -10 3 -10 9 0 17 5 17 10 0 12 -1 12 -20 0z"/>
<path d="M6755 3791 c-3 -5 -1 -12 5 -16 5 -3 10 1 10 9 0 18 -6 21 -15 7z"/>
<path d="M7205 3790 c-3 -5 -1 -10 4 -10 6 0 11 5 11 10 0 6 -2 10 -4 10 -3 0
-8 -4 -11 -10z"/>
<path d="M6718 3783 c7 -3 16 -2 19 1 4 3 -2 6 -13 5 -11 0 -14 -3 -6 -6z"/>
</g>
</svg>
